<?xml version="1.0" encoding="UTF-8" standalone="no"?>
<!-- Created with Inkscape (http://www.inkscape.org/) -->

<svg
   width="210mm"
   height="297mm"
   viewBox="0 0 210 297"
   version="1.1"
   id="svg5"
   inkscape:export-filename="/home/michael/dev/301/qr-pokemon/doc/storyboard/resources/view-profile.png"
   inkscape:export-xdpi="48"
   inkscape:export-ydpi="48"
   inkscape:version="1.1.2 (0a00cf5339, 2022-02-04)"
   sodipodi:docname="other-user-interface.svg"
   xmlns:inkscape="http://www.inkscape.org/namespaces/inkscape"
   xmlns:sodipodi="http://sodipodi.sourceforge.net/DTD/sodipodi-0.dtd"
   xmlns="http://www.w3.org/2000/svg"
   xmlns:svg="http://www.w3.org/2000/svg">
  <sodipodi:namedview
     id="namedview7"
     pagecolor="#505050"
     bordercolor="#eeeeee"
     borderopacity="1"
     inkscape:pageshadow="0"
     inkscape:pageopacity="0"
     inkscape:pagecheckerboard="0"
     inkscape:document-units="mm"
     showgrid="false"
     showguides="true"
     inkscape:guide-bbox="true"
     inkscape:zoom="1.2774943"
     inkscape:cx="236.40027"
     inkscape:cy="571.03973"
     inkscape:window-width="3836"
     inkscape:window-height="2094"
     inkscape:window-x="0"
     inkscape:window-y="62"
     inkscape:window-maximized="0"
     inkscape:current-layer="layer1" />
  <defs
     id="defs2" />
  <g
     inkscape:label="Background"
     inkscape:groupmode="layer"
     id="layer1"
     style="display:inline"
     sodipodi:insensitive="true">
    <rect
       style="fill:#ffffff;stroke:#ffffff;stroke-width:0.499999"
       id="rect854"
       width="209.84608"
       height="297.9021"
       x="0.26311606"
       y="-0.55316401" />
  </g>
  <g
     inkscape:groupmode="layer"
     id="layer2"
     inkscape:label="Comments"
     style="display:inline">
    <rect
       style="display:inline;fill:#ffffff;fill-opacity:0.999557;stroke:#e5e5e5;stroke-width:0.5;stroke-opacity:1"
       id="rect107480-3"
       width="210.013"
       height="42.334377"
       x="0.17923756"
       y="78.950638" />
    <rect
       style="display:inline;fill:#ffffff;fill-opacity:0.99964;stroke:#e5e5e5;stroke-width:0.5;stroke-opacity:1"
       id="rect107480-3-7"
       width="210.01338"
       height="42.334377"
       x="0.17904682"
       y="121.28396" />
    <rect
       style="display:inline;fill:#ffffff;fill-opacity:0.99999;stroke:#e5e5e5;stroke-width:0.5;stroke-opacity:1"
       id="rect107480-3-3"
       width="210.01338"
       height="42.334377"
       x="0.17904682"
       y="163.61729" />
    <rect
       style="display:inline;fill:#ffffff;fill-opacity:0.999303;stroke:#e5e5e5;stroke-width:0.5;stroke-opacity:1"
       id="rect107480-3-79"
       width="210.01338"
       height="42.334377"
       x="0.17904682"
       y="205.95062" />
    <text
       xml:space="preserve"
       style="font-size:6.35px;line-height:1.25;font-family:sans-serif;display:inline;fill:#ffffff;stroke-width:0.264583"
       x="148.84425"
       y="195.80119"
       id="text7641-1"><tspan
         sodipodi:role="line"
         id="tspan7639-7"
         style="font-size:6.35px;fill:#ffffff;stroke-width:0.264583"
         x="148.84425"
         y="195.80119">Add comment</tspan></text>
    <text
       xml:space="preserve"
       style="font-size:6.35px;line-height:1.25;font-family:sans-serif;display:inline;fill:#ffffff;stroke-width:0.264583"
       x="146.9726"
       y="153.11383"
       id="text7641-5"><tspan
         sodipodi:role="line"
         id="tspan7639-2"
         style="font-size:6.35px;fill:#ffffff;stroke-width:0.264583"
         x="146.9726"
         y="153.11383">Add comment</tspan></text>
    <g
       id="g37719"
       style="display:inline"
       transform="translate(0.18573693,4.8673007)">
      <rect
         x="9.1429138"
         y="120.74294"
         width="33.680813"
         height="33.680813"
         style="fill:#ffffff;stroke:none;stroke-width:0.75"
         id="rect36470"
         ry="0.82166028" />
      <g
         style="fill:#000000;stroke:none"
         id="g36474"
         transform="matrix(0.35521545,0,0,0.35521545,5.3808244,116.98085)">
        <path
           d="M 95.6,100 H 92.4 C 92.179086,100 92,99.820914 92,99.6 V 96 h 3.6 c 0.220914,0 0.4,0.179086 0.4,0.4 v 3.2 c 0,0.220914 -0.179086,0.4 -0.4,0.4 z m -8,0 H 84.4 C 84.179086,100 84,99.820914 84,99.6 V 96.4 C 84,96.179086 84.179086,96 84.4,96 H 88 v 3.6 c 0,0.220914 -0.179086,0.4 -0.4,0.4 z m -8,0 H 76.4 C 76.179086,100 76,99.820914 76,99.6 V 96 h 3.6 c 0.220914,0 0.4,0.179086 0.4,0.4 v 3.2 c 0,0.220914 -0.179086,0.4 -0.4,0.4 z m -12,0 H 64.4 C 64.179086,100 64,99.820914 64,99.6 V 96.4 C 64,96.179086 63.820914,96 63.6,96 H 60.4 C 60.179086,96 60,96.179086 60,96.4 v 3.2 c 0,0.220914 -0.179086,0.4 -0.4,0.4 H 56.4 C 56.179086,100 56,99.820914 56,99.6 V 88.4 C 56,88.179086 55.820914,88 55.6,88 H 52.4 C 52.179086,88 52,88.179086 52,88.4 v 11.2 c 0,0.220914 -0.179086,0.4 -0.4,0.4 H 48.4 C 48.179086,100 48,99.820914 48,99.6 V 80.4 C 48,80.179086 48.179086,80 48.4,80 h 3.2 C 51.820914,80 52,79.820914 52,79.6 V 76.4 C 52,76.179086 51.820914,76 51.6,76 H 48.4 C 48.179086,76 48,75.820914 48,75.6 V 68.4 C 48,68.179086 47.820914,68 47.6,68 H 32.4 C 32.179086,68 32,67.820914 32,67.6 V 60.4 C 32,60.179086 31.820914,60 31.6,60 H 28.4 C 28.179086,60 28,60.179086 28,60.4 v 3.2 C 28,63.820914 27.820914,64 27.6,64 H 24.4 C 24.179086,64 24,63.820914 24,63.6 V 60.4 C 24,60.179086 23.820914,60 23.6,60 H 20.4 C 20.179086,60 20,59.820914 20,59.6 V 56 h 15.6 c 0.220914,0 0.4,0.179086 0.4,0.4 v 3.2 c 0,0.220914 0.179086,0.4 0.4,0.4 H 40 v 3.6 c 0,0.220914 0.179086,0.4 0.4,0.4 h 7.2 C 47.820914,64 48,63.820914 48,63.6 V 60 h 4 v 11.6 c 0,0.220914 0.179086,0.4 0.4,0.4 h 3.2 C 55.820914,72 56,71.820914 56,71.6 V 60 h 7.6 C 63.820914,60 64,59.820914 64,59.6 V 56.4 C 64,56.179086 63.820914,56 63.6,56 H 60.4 C 60.179086,56 60,55.820914 60,55.6 V 48.4 C 60,48.179086 60.179086,48 60.4,48 h 3.2 c 0.220914,0 0.4,0.179086 0.4,0.4 v 3.2 c 0,0.220914 0.179086,0.4 0.4,0.4 h 3.2 C 67.820914,52 68,51.820914 68,51.6 V 48.4 C 68,48.179086 68.179086,48 68.4,48 h 3.2 c 0.220914,0 0.4,0.179086 0.4,0.4 v 3.2 c 0,0.220914 0.179086,0.4 0.4,0.4 H 76 v 3.6 c 0,0.220914 0.179086,0.4 0.4,0.4 h 3.2 c 0.220914,0 0.4,0.179086 0.4,0.4 v 3.2 C 80,59.820914 79.820914,60 79.6,60 H 76.4 C 76.179086,60 76,60.179086 76,60.4 V 64 H 68.4 C 68.179086,64 68,64.179086 68,64.4 V 72 H 64 V 64.4 C 64,64.179086 63.820914,64 63.6,64 H 60.4 C 60.179086,64 60,64.179086 60,64.4 v 7.2 c 0,0.220914 0.179086,0.4 0.4,0.4 H 64 v 3.6 C 64,75.820914 63.820914,76 63.6,76 H 60.4 C 60.179086,76 60,76.179086 60,76.4 v 3.2 c 0,0.220914 0.179086,0.4 0.4,0.4 h 3.2 c 0.220914,0 0.4,0.179086 0.4,0.4 v 3.2 c 0,0.220914 0.179086,0.4 0.4,0.4 h 3.2 C 67.820914,84 68,83.820914 68,83.6 V 80.4 C 68,80.179086 68.179086,80 68.4,80 h 3.2 c 0.220914,0 0.4,0.179086 0.4,0.4 v 3.2 c 0,0.220914 0.179086,0.4 0.4,0.4 H 80 v 7.6 C 80,91.820914 79.820914,92 79.6,92 H 76.4 C 76.179086,92 76,92.179086 76,92.4 V 96 H 68.4 C 68.179086,96 68,96.179086 68,96.4 v 3.2 c 0,0.220914 -0.179086,0.4 -0.4,0.4 z m -24,0 H 16.4 C 16.179086,100 16,99.820914 16,99.6 V 72.4 C 16,72.179086 16.179086,72 16.4,72 h 27.2 c 0.220914,0 0.4,0.179086 0.4,0.4 v 27.2 c 0,0.220914 -0.179086,0.4 -0.4,0.4 z m 48,-4 H 88 V 88.4 C 88,88.179086 87.820914,88 87.6,88 H 84.4 C 84.179086,88 84,87.820914 84,87.6 V 84.4 C 84,84.179086 83.820914,84 83.6,84 H 80 V 80.4 C 80,80.179086 79.820914,80 79.6,80 H 76.4 C 76.179086,80 76,79.820914 76,79.6 V 76.4 C 76,76.179086 76.179086,76 76.4,76 h 3.2 C 79.820914,76 80,75.820914 80,75.6 V 72 h 8 v 3.6 c 0,0.220914 0.179086,0.4 0.4,0.4 h 3.2 C 91.820914,76 92,75.820914 92,75.6 V 72.4 C 92,72.179086 91.820914,72 91.6,72 H 88 v -4 h 3.6 C 91.820914,68 92,67.820914 92,67.6 V 64 h 3.6 c 0.220914,0 0.4,0.179086 0.4,0.4 v 3.2 c 0,0.220914 0.179086,0.4 0.4,0.4 h 3.2 c 0.220914,0 0.4,0.179086 0.4,0.4 v 3.2 c 0,0.220914 -0.179086,0.4 -0.4,0.4 H 96.4 C 96.179086,72 96,72.179086 96,72.4 V 83.6 C 96,83.820914 95.820914,84 95.6,84 H 92 V 80.4 C 92,80.179086 91.820914,80 91.6,80 H 88.4 C 88.179086,80 88,80.179086 88,80.4 v 3.2 c 0,0.220914 0.179086,0.4 0.4,0.4 H 92 V 96 Z M 40,95.6 V 76.4 C 40,76.179086 39.820914,76 39.6,76 H 20.4 C 20.179086,76 20,76.179086 20,76.4 v 19.2 c 0,0.220914 0.179086,0.4 0.4,0.4 h 19.2 c 0.220914,0 0.4,-0.179086 0.4,-0.4 z m 32,-4 V 88.4 C 72,88.179086 71.820914,88 71.6,88 H 68.4 C 68.179086,88 68,88.179086 68,88.4 v 3.2 c 0,0.220914 0.179086,0.4 0.4,0.4 h 3.2 c 0.220914,0 0.4,-0.179086 0.4,-0.4 z m -8,0 V 88.4 C 64,88.179086 63.820914,88 63.6,88 H 60.4 C 60.179086,88 60,88.179086 60,88.4 v 3.2 c 0,0.220914 0.179086,0.4 0.4,0.4 h 3.2 C 63.820914,92 64,91.820914 64,91.6 Z M 35.6,92 H 24.4 C 24.179086,92 24,91.820914 24,91.6 V 80.4 C 24,80.179086 24.179086,80 24.4,80 h 11.2 c 0.220914,0 0.4,0.179086 0.4,0.4 v 11.2 c 0,0.220914 -0.179086,0.4 -0.4,0.4 z m 36,-16 H 68.4 C 68.179086,76 68,75.820914 68,75.6 V 72 h 3.6 c 0.220914,0 0.4,0.179086 0.4,0.4 v 3.2 c 0,0.220914 -0.179086,0.4 -0.4,0.4 z m 8,-4 H 76.4 C 76.179086,72 76,71.820914 76,71.6 V 64 h 3.6 c 0.220914,0 0.4,0.179086 0.4,0.4 V 72 Z m 8,-4 H 84.4 C 84.179086,68 84,67.820914 84,67.6 V 48.4 C 84,48.179086 84.179086,48 84.4,48 h 3.2 c 0.220914,0 0.4,0.179086 0.4,0.4 v 3.2 c 0,0.220914 0.179086,0.4 0.4,0.4 H 92 v 3.6 c 0,0.220914 0.179086,0.4 0.4,0.4 H 96 v 3.6 C 96,59.820914 95.820914,60 95.6,60 H 92.4 C 92.179086,60 92,60.179086 92,60.4 V 64 H 88.4 C 88.179086,64 88,64.179086 88,64.4 V 68 Z M 72,59.6 V 56.4 C 72,56.179086 71.820914,56 71.6,56 H 68.4 C 68.179086,56 68,56.179086 68,56.4 v 3.2 c 0,0.220914 0.179086,0.4 0.4,0.4 h 3.2 C 71.820914,60 72,59.820914 72,59.6 Z M 55.6,60 H 52 V 56.4 C 52,56.179086 52.179086,56 52.4,56 h 3.2 c 0.220914,0 0.4,0.179086 0.4,0.4 V 60 Z m -8,0 H 40 V 56.4 C 40,56.179086 40.179086,56 40.4,56 h 7.2 c 0.220914,0 0.4,0.179086 0.4,0.4 V 60 Z m 52,-4 H 96 v -4 h 3.6 c 0.220914,0 0.4,0.179086 0.4,0.4 v 3.2 c 0,0.220914 -0.179086,0.4 -0.4,0.4 z m -80,0 H 16.4 C 16.179086,56 16,55.820914 16,55.6 V 48.4 C 16,48.179086 16.179086,48 16.4,48 h 19.2 c 0.220914,0 0.4,0.179086 0.4,0.4 v 3.2 C 36,51.820914 35.820914,52 35.6,52 H 20.4 C 20.179086,52 20,52.179086 20,52.4 V 56 Z m 76,-4 H 92 V 48.4 C 92,48.179086 92.179086,48 92.4,48 h 3.2 c 0.220914,0 0.4,0.179086 0.4,0.4 V 52 Z m -16,0 H 76 V 48.4 C 76,48.179086 76.179086,48 76.4,48 h 3.2 c 0.220914,0 0.4,0.179086 0.4,0.4 v 3.2 c 0,0.220914 -0.179086,0.4 -0.4,0.4 z m -28,0 H 40.4 C 40.179086,52 40,51.820914 40,51.6 V 48.4 C 40,48.179086 40.179086,48 40.4,48 H 52 v 3.6 c 0,0.220914 -0.179086,0.4 -0.4,0.4 z m 4,-4 H 52 v -4 h 4 v 3.6 c 0,0.220914 -0.179086,0.4 -0.4,0.4 z m 44,-4 H 72.4 C 72.179086,44 72,43.820914 72,43.6 V 16.4 C 72,16.179086 72.179086,16 72.4,16 h 27.2 c 0.220914,0 0.4,0.179086 0.4,0.4 v 27.2 c 0,0.220914 -0.179086,0.4 -0.4,0.4 z m -32,0 H 64.4 C 64.179086,44 64,43.820914 64,43.6 V 40 h 3.6 c 0.220914,0 0.4,0.179086 0.4,0.4 v 3.2 c 0,0.220914 -0.179086,0.4 -0.4,0.4 z m -8,0 H 56 V 40.4 C 56,40.179086 56.179086,40 56.4,40 H 60 v 3.6 c 0,0.220914 -0.179086,0.4 -0.4,0.4 z m -8,0 H 48.4 C 48.179086,44 48,43.820914 48,43.6 V 36.4 C 48,36.179086 48.179086,36 48.4,36 H 52 v 8 z m -8,0 H 16.4 C 16.179086,44 16,43.820914 16,43.6 V 16.4 C 16,16.179086 16.179086,16 16.4,16 h 27.2 c 0.220914,0 0.4,0.179086 0.4,0.4 V 43.6 C 44,43.820914 43.820914,44 43.6,44 Z M 96,39.6 V 20.4 C 96,20.179086 95.820914,20 95.6,20 H 76.4 C 76.179086,20 76,20.179086 76,20.4 v 19.2 c 0,0.220914 0.179086,0.4 0.4,0.4 H 95.6 C 95.820914,40 96,39.820914 96,39.6 Z M 63.6,40 H 60 V 36.4 C 60,36.179086 60.179086,36 60.4,36 H 64 v 4 z M 40,39.6 V 20.4 C 40,20.179086 39.820914,20 39.6,20 H 20.4 C 20.179086,20 20,20.179086 20,20.4 v 19.2 c 0,0.220914 0.179086,0.4 0.4,0.4 H 39.6 C 39.820914,40 40,39.820914 40,39.6 Z M 91.6,36 H 80.4 C 80.179086,36 80,35.820914 80,35.6 V 24.4 C 80,24.179086 80.179086,24 80.4,24 h 11.2 c 0.220914,0 0.4,0.179086 0.4,0.4 v 11.2 c 0,0.220914 -0.179086,0.4 -0.4,0.4 z m -24,0 H 64 V 28.4 C 64,28.179086 63.820914,28 63.6,28 H 56 V 24.4 C 56,24.179086 55.820914,24 55.6,24 H 48.4 C 48.179086,24 48,23.820914 48,23.6 V 20.4 C 48,20.179086 48.179086,20 48.4,20 h 7.2 C 55.820914,20 56,19.820914 56,19.6 V 16.4 C 56,16.179086 56.179086,16 56.4,16 h 11.2 c 0.220914,0 0.4,0.179086 0.4,0.4 v 19.2 c 0,0.220914 -0.179086,0.4 -0.4,0.4 z m -12,0 H 52 V 32.4 C 52,32.179086 51.820914,32 51.6,32 H 48.4 C 48.179086,32 48,31.820914 48,31.6 V 28.4 C 48,28.179086 48.179086,28 48.4,28 H 56 v 7.6 c 0,0.220914 -0.179086,0.4 -0.4,0.4 z m -20,0 H 24.4 C 24.179086,36 24,35.820914 24,35.6 V 24.4 C 24,24.179086 24.179086,24 24.4,24 h 11.2 c 0.220914,0 0.4,0.179086 0.4,0.4 V 35.6 C 36,35.820914 35.820914,36 35.6,36 Z M 64,23.6 V 20.4 C 64,20.179086 63.820914,20 63.6,20 H 60.4 C 60.179086,20 60,20.179086 60,20.4 v 3.2 c 0,0.220914 0.179086,0.4 0.4,0.4 h 3.2 c 0.220914,0 0.4,-0.179086 0.4,-0.4 z"
           id="path36472" />
      </g>
    </g>
    <g
       id="g31586"
       transform="translate(2.0711139,7.9197922)"
       style="display:inline">
      <rect
         style="font-variation-settings:normal;opacity:1;vector-effect:none;fill:#0078ff;fill-opacity:1;fill-rule:evenodd;stroke-width:1.01828;stroke-linecap:butt;stroke-linejoin:miter;stroke-miterlimit:4;stroke-dasharray:none;stroke-dashoffset:0;stroke-opacity:1;-inkscape-stroke:none;stop-color:#000000;stop-opacity:1"
         id="rect1272-9"
         width="47.547745"
         height="11.697873"
         x="145.23318"
         y="98.262131"
         ry="4.2112341" />
      <text
         xml:space="preserve"
         style="font-size:6.35px;line-height:1.25;font-family:sans-serif;fill:#ffffff;stroke-width:0.264583"
         x="148.03619"
         y="106.49232"
         id="text7641-4"><tspan
           sodipodi:role="line"
           id="tspan7639-8"
           style="font-size:6.35px;fill:#ffffff;stroke-width:0.264583"
           x="148.03619"
           y="106.49232">Add comment</tspan></text>
    </g>
    <g
       id="g31594"
       transform="translate(2.0711139,50.268232)"
       style="display:inline">
      <rect
         style="font-variation-settings:normal;opacity:1;vector-effect:none;fill:#0078ff;fill-opacity:1;fill-rule:evenodd;stroke-width:1.01828;stroke-linecap:butt;stroke-linejoin:miter;stroke-miterlimit:4;stroke-dasharray:none;stroke-dashoffset:0;stroke-opacity:1;-inkscape-stroke:none;stop-color:#000000;stop-opacity:1"
         id="rect31588"
         width="47.547745"
         height="11.697873"
         x="145.23318"
         y="98.262131"
         ry="4.2112341" />
      <text
         xml:space="preserve"
         style="font-size:6.35px;line-height:1.25;font-family:sans-serif;fill:#ffffff;stroke-width:0.264583"
         x="148.03619"
         y="106.49232"
         id="text31592"><tspan
           sodipodi:role="line"
           id="tspan31590"
           style="font-size:6.35px;fill:#ffffff;stroke-width:0.264583"
           x="148.03619"
           y="106.49232">Add comment</tspan></text>
    </g>
    <g
       id="g31602"
       transform="translate(2.0711139,92.616676)"
       style="display:inline">
      <rect
         style="font-variation-settings:normal;opacity:1;vector-effect:none;fill:#0078ff;fill-opacity:1;fill-rule:evenodd;stroke-width:1.01828;stroke-linecap:butt;stroke-linejoin:miter;stroke-miterlimit:4;stroke-dasharray:none;stroke-dashoffset:0;stroke-opacity:1;-inkscape-stroke:none;stop-color:#000000;stop-opacity:1"
         id="rect31596"
         width="47.547745"
         height="11.697873"
         x="145.23318"
         y="98.262131"
         ry="4.2112341" />
      <text
         xml:space="preserve"
         style="font-size:6.35px;line-height:1.25;font-family:sans-serif;fill:#ffffff;stroke-width:0.264583"
         x="148.03619"
         y="106.49232"
         id="text31600"><tspan
           sodipodi:role="line"
           id="tspan31598"
           style="font-size:6.35px;fill:#ffffff;stroke-width:0.264583"
           x="148.03619"
           y="106.49232">Add comment</tspan></text>
    </g>
    <g
       id="g31610"
       transform="translate(2.0711139,134.9651)"
       style="display:inline">
      <rect
         style="font-variation-settings:normal;opacity:1;vector-effect:none;fill:#0078ff;fill-opacity:1;fill-rule:evenodd;stroke-width:1.01828;stroke-linecap:butt;stroke-linejoin:miter;stroke-miterlimit:4;stroke-dasharray:none;stroke-dashoffset:0;stroke-opacity:1;-inkscape-stroke:none;stop-color:#000000;stop-opacity:1"
         id="rect31604"
         width="47.547745"
         height="11.697873"
         x="145.23318"
         y="98.262131"
         ry="4.2112341" />
      <text
         xml:space="preserve"
         style="font-size:6.35px;line-height:1.25;font-family:sans-serif;fill:#ffffff;stroke-width:0.264583"
         x="148.03619"
         y="106.49232"
         id="text31608"><tspan
           sodipodi:role="line"
           id="tspan31606"
           style="font-size:6.35px;fill:#ffffff;stroke-width:0.264583"
           x="148.03619"
           y="106.49232">Add comment</tspan></text>
    </g>
    <g
       id="g37887"
       transform="translate(0.18573693,89.534463)"
       style="display:inline">
      <rect
         x="9.1429138"
         y="120.74294"
         width="33.680813"
         height="33.680813"
         style="fill:#ffffff;stroke:none;stroke-width:0.75"
         id="rect37881"
         ry="0.82166028" />
      <g
         style="fill:#000000;stroke:none"
         id="g37885"
         transform="matrix(0.35521545,0,0,0.35521545,5.3808244,116.98085)">
        <path
           d="M 95.6,100 H 92.4 C 92.179086,100 92,99.820914 92,99.6 V 96 h 3.6 c 0.220914,0 0.4,0.179086 0.4,0.4 v 3.2 c 0,0.220914 -0.179086,0.4 -0.4,0.4 z m -8,0 H 84.4 C 84.179086,100 84,99.820914 84,99.6 V 96.4 C 84,96.179086 84.179086,96 84.4,96 H 88 v 3.6 c 0,0.220914 -0.179086,0.4 -0.4,0.4 z m -8,0 H 76.4 C 76.179086,100 76,99.820914 76,99.6 V 96 h 3.6 c 0.220914,0 0.4,0.179086 0.4,0.4 v 3.2 c 0,0.220914 -0.179086,0.4 -0.4,0.4 z m -12,0 H 64.4 C 64.179086,100 64,99.820914 64,99.6 V 96.4 C 64,96.179086 63.820914,96 63.6,96 H 60.4 C 60.179086,96 60,96.179086 60,96.4 v 3.2 c 0,0.220914 -0.179086,0.4 -0.4,0.4 H 56.4 C 56.179086,100 56,99.820914 56,99.6 V 88.4 C 56,88.179086 55.820914,88 55.6,88 H 52.4 C 52.179086,88 52,88.179086 52,88.4 v 11.2 c 0,0.220914 -0.179086,0.4 -0.4,0.4 H 48.4 C 48.179086,100 48,99.820914 48,99.6 V 80.4 C 48,80.179086 48.179086,80 48.4,80 h 3.2 C 51.820914,80 52,79.820914 52,79.6 V 76.4 C 52,76.179086 51.820914,76 51.6,76 H 48.4 C 48.179086,76 48,75.820914 48,75.6 V 68.4 C 48,68.179086 47.820914,68 47.6,68 H 32.4 C 32.179086,68 32,67.820914 32,67.6 V 60.4 C 32,60.179086 31.820914,60 31.6,60 H 28.4 C 28.179086,60 28,60.179086 28,60.4 v 3.2 C 28,63.820914 27.820914,64 27.6,64 H 24.4 C 24.179086,64 24,63.820914 24,63.6 V 60.4 C 24,60.179086 23.820914,60 23.6,60 H 20.4 C 20.179086,60 20,59.820914 20,59.6 V 56 h 15.6 c 0.220914,0 0.4,0.179086 0.4,0.4 v 3.2 c 0,0.220914 0.179086,0.4 0.4,0.4 H 40 v 3.6 c 0,0.220914 0.179086,0.4 0.4,0.4 h 7.2 C 47.820914,64 48,63.820914 48,63.6 V 60 h 4 v 11.6 c 0,0.220914 0.179086,0.4 0.4,0.4 h 3.2 C 55.820914,72 56,71.820914 56,71.6 V 60 h 7.6 C 63.820914,60 64,59.820914 64,59.6 V 56.4 C 64,56.179086 63.820914,56 63.6,56 H 60.4 C 60.179086,56 60,55.820914 60,55.6 V 48.4 C 60,48.179086 60.179086,48 60.4,48 h 3.2 c 0.220914,0 0.4,0.179086 0.4,0.4 v 3.2 c 0,0.220914 0.179086,0.4 0.4,0.4 h 3.2 C 67.820914,52 68,51.820914 68,51.6 V 48.4 C 68,48.179086 68.179086,48 68.4,48 h 3.2 c 0.220914,0 0.4,0.179086 0.4,0.4 v 3.2 c 0,0.220914 0.179086,0.4 0.4,0.4 H 76 v 3.6 c 0,0.220914 0.179086,0.4 0.4,0.4 h 3.2 c 0.220914,0 0.4,0.179086 0.4,0.4 v 3.2 C 80,59.820914 79.820914,60 79.6,60 H 76.4 C 76.179086,60 76,60.179086 76,60.4 V 64 H 68.4 C 68.179086,64 68,64.179086 68,64.4 V 72 H 64 V 64.4 C 64,64.179086 63.820914,64 63.6,64 H 60.4 C 60.179086,64 60,64.179086 60,64.4 v 7.2 c 0,0.220914 0.179086,0.4 0.4,0.4 H 64 v 3.6 C 64,75.820914 63.820914,76 63.6,76 H 60.4 C 60.179086,76 60,76.179086 60,76.4 v 3.2 c 0,0.220914 0.179086,0.4 0.4,0.4 h 3.2 c 0.220914,0 0.4,0.179086 0.4,0.4 v 3.2 c 0,0.220914 0.179086,0.4 0.4,0.4 h 3.2 C 67.820914,84 68,83.820914 68,83.6 V 80.4 C 68,80.179086 68.179086,80 68.4,80 h 3.2 c 0.220914,0 0.4,0.179086 0.4,0.4 v 3.2 c 0,0.220914 0.179086,0.4 0.4,0.4 H 80 v 7.6 C 80,91.820914 79.820914,92 79.6,92 H 76.4 C 76.179086,92 76,92.179086 76,92.4 V 96 H 68.4 C 68.179086,96 68,96.179086 68,96.4 v 3.2 c 0,0.220914 -0.179086,0.4 -0.4,0.4 z m -24,0 H 16.4 C 16.179086,100 16,99.820914 16,99.6 V 72.4 C 16,72.179086 16.179086,72 16.4,72 h 27.2 c 0.220914,0 0.4,0.179086 0.4,0.4 v 27.2 c 0,0.220914 -0.179086,0.4 -0.4,0.4 z m 48,-4 H 88 V 88.4 C 88,88.179086 87.820914,88 87.6,88 H 84.4 C 84.179086,88 84,87.820914 84,87.6 V 84.4 C 84,84.179086 83.820914,84 83.6,84 H 80 V 80.4 C 80,80.179086 79.820914,80 79.6,80 H 76.4 C 76.179086,80 76,79.820914 76,79.6 V 76.4 C 76,76.179086 76.179086,76 76.4,76 h 3.2 C 79.820914,76 80,75.820914 80,75.6 V 72 h 8 v 3.6 c 0,0.220914 0.179086,0.4 0.4,0.4 h 3.2 C 91.820914,76 92,75.820914 92,75.6 V 72.4 C 92,72.179086 91.820914,72 91.6,72 H 88 v -4 h 3.6 C 91.820914,68 92,67.820914 92,67.6 V 64 h 3.6 c 0.220914,0 0.4,0.179086 0.4,0.4 v 3.2 c 0,0.220914 0.179086,0.4 0.4,0.4 h 3.2 c 0.220914,0 0.4,0.179086 0.4,0.4 v 3.2 c 0,0.220914 -0.179086,0.4 -0.4,0.4 H 96.4 C 96.179086,72 96,72.179086 96,72.4 V 83.6 C 96,83.820914 95.820914,84 95.6,84 H 92 V 80.4 C 92,80.179086 91.820914,80 91.6,80 H 88.4 C 88.179086,80 88,80.179086 88,80.4 v 3.2 c 0,0.220914 0.179086,0.4 0.4,0.4 H 92 V 96 Z M 40,95.6 V 76.4 C 40,76.179086 39.820914,76 39.6,76 H 20.4 C 20.179086,76 20,76.179086 20,76.4 v 19.2 c 0,0.220914 0.179086,0.4 0.4,0.4 h 19.2 c 0.220914,0 0.4,-0.179086 0.4,-0.4 z m 32,-4 V 88.4 C 72,88.179086 71.820914,88 71.6,88 H 68.4 C 68.179086,88 68,88.179086 68,88.4 v 3.2 c 0,0.220914 0.179086,0.4 0.4,0.4 h 3.2 c 0.220914,0 0.4,-0.179086 0.4,-0.4 z m -8,0 V 88.4 C 64,88.179086 63.820914,88 63.6,88 H 60.4 C 60.179086,88 60,88.179086 60,88.4 v 3.2 c 0,0.220914 0.179086,0.4 0.4,0.4 h 3.2 C 63.820914,92 64,91.820914 64,91.6 Z M 35.6,92 H 24.4 C 24.179086,92 24,91.820914 24,91.6 V 80.4 C 24,80.179086 24.179086,80 24.4,80 h 11.2 c 0.220914,0 0.4,0.179086 0.4,0.4 v 11.2 c 0,0.220914 -0.179086,0.4 -0.4,0.4 z m 36,-16 H 68.4 C 68.179086,76 68,75.820914 68,75.6 V 72 h 3.6 c 0.220914,0 0.4,0.179086 0.4,0.4 v 3.2 c 0,0.220914 -0.179086,0.4 -0.4,0.4 z m 8,-4 H 76.4 C 76.179086,72 76,71.820914 76,71.6 V 64 h 3.6 c 0.220914,0 0.4,0.179086 0.4,0.4 V 72 Z m 8,-4 H 84.4 C 84.179086,68 84,67.820914 84,67.6 V 48.4 C 84,48.179086 84.179086,48 84.4,48 h 3.2 c 0.220914,0 0.4,0.179086 0.4,0.4 v 3.2 c 0,0.220914 0.179086,0.4 0.4,0.4 H 92 v 3.6 c 0,0.220914 0.179086,0.4 0.4,0.4 H 96 v 3.6 C 96,59.820914 95.820914,60 95.6,60 H 92.4 C 92.179086,60 92,60.179086 92,60.4 V 64 H 88.4 C 88.179086,64 88,64.179086 88,64.4 V 68 Z M 72,59.6 V 56.4 C 72,56.179086 71.820914,56 71.6,56 H 68.4 C 68.179086,56 68,56.179086 68,56.4 v 3.2 c 0,0.220914 0.179086,0.4 0.4,0.4 h 3.2 C 71.820914,60 72,59.820914 72,59.6 Z M 55.6,60 H 52 V 56.4 C 52,56.179086 52.179086,56 52.4,56 h 3.2 c 0.220914,0 0.4,0.179086 0.4,0.4 V 60 Z m -8,0 H 40 V 56.4 C 40,56.179086 40.179086,56 40.4,56 h 7.2 c 0.220914,0 0.4,0.179086 0.4,0.4 V 60 Z m 52,-4 H 96 v -4 h 3.6 c 0.220914,0 0.4,0.179086 0.4,0.4 v 3.2 c 0,0.220914 -0.179086,0.4 -0.4,0.4 z m -80,0 H 16.4 C 16.179086,56 16,55.820914 16,55.6 V 48.4 C 16,48.179086 16.179086,48 16.4,48 h 19.2 c 0.220914,0 0.4,0.179086 0.4,0.4 v 3.2 C 36,51.820914 35.820914,52 35.6,52 H 20.4 C 20.179086,52 20,52.179086 20,52.4 V 56 Z m 76,-4 H 92 V 48.4 C 92,48.179086 92.179086,48 92.4,48 h 3.2 c 0.220914,0 0.4,0.179086 0.4,0.4 V 52 Z m -16,0 H 76 V 48.4 C 76,48.179086 76.179086,48 76.4,48 h 3.2 c 0.220914,0 0.4,0.179086 0.4,0.4 v 3.2 c 0,0.220914 -0.179086,0.4 -0.4,0.4 z m -28,0 H 40.4 C 40.179086,52 40,51.820914 40,51.6 V 48.4 C 40,48.179086 40.179086,48 40.4,48 H 52 v 3.6 c 0,0.220914 -0.179086,0.4 -0.4,0.4 z m 4,-4 H 52 v -4 h 4 v 3.6 c 0,0.220914 -0.179086,0.4 -0.4,0.4 z m 44,-4 H 72.4 C 72.179086,44 72,43.820914 72,43.6 V 16.4 C 72,16.179086 72.179086,16 72.4,16 h 27.2 c 0.220914,0 0.4,0.179086 0.4,0.4 v 27.2 c 0,0.220914 -0.179086,0.4 -0.4,0.4 z m -32,0 H 64.4 C 64.179086,44 64,43.820914 64,43.6 V 40 h 3.6 c 0.220914,0 0.4,0.179086 0.4,0.4 v 3.2 c 0,0.220914 -0.179086,0.4 -0.4,0.4 z m -8,0 H 56 V 40.4 C 56,40.179086 56.179086,40 56.4,40 H 60 v 3.6 c 0,0.220914 -0.179086,0.4 -0.4,0.4 z m -8,0 H 48.4 C 48.179086,44 48,43.820914 48,43.6 V 36.4 C 48,36.179086 48.179086,36 48.4,36 H 52 v 8 z m -8,0 H 16.4 C 16.179086,44 16,43.820914 16,43.6 V 16.4 C 16,16.179086 16.179086,16 16.4,16 h 27.2 c 0.220914,0 0.4,0.179086 0.4,0.4 V 43.6 C 44,43.820914 43.820914,44 43.6,44 Z M 96,39.6 V 20.4 C 96,20.179086 95.820914,20 95.6,20 H 76.4 C 76.179086,20 76,20.179086 76,20.4 v 19.2 c 0,0.220914 0.179086,0.4 0.4,0.4 H 95.6 C 95.820914,40 96,39.820914 96,39.6 Z M 63.6,40 H 60 V 36.4 C 60,36.179086 60.179086,36 60.4,36 H 64 v 4 z M 40,39.6 V 20.4 C 40,20.179086 39.820914,20 39.6,20 H 20.4 C 20.179086,20 20,20.179086 20,20.4 v 19.2 c 0,0.220914 0.179086,0.4 0.4,0.4 H 39.6 C 39.820914,40 40,39.820914 40,39.6 Z M 91.6,36 H 80.4 C 80.179086,36 80,35.820914 80,35.6 V 24.4 C 80,24.179086 80.179086,24 80.4,24 h 11.2 c 0.220914,0 0.4,0.179086 0.4,0.4 v 11.2 c 0,0.220914 -0.179086,0.4 -0.4,0.4 z m -24,0 H 64 V 28.4 C 64,28.179086 63.820914,28 63.6,28 H 56 V 24.4 C 56,24.179086 55.820914,24 55.6,24 H 48.4 C 48.179086,24 48,23.820914 48,23.6 V 20.4 C 48,20.179086 48.179086,20 48.4,20 h 7.2 C 55.820914,20 56,19.820914 56,19.6 V 16.4 C 56,16.179086 56.179086,16 56.4,16 h 11.2 c 0.220914,0 0.4,0.179086 0.4,0.4 v 19.2 c 0,0.220914 -0.179086,0.4 -0.4,0.4 z m -12,0 H 52 V 32.4 C 52,32.179086 51.820914,32 51.6,32 H 48.4 C 48.179086,32 48,31.820914 48,31.6 V 28.4 C 48,28.179086 48.179086,28 48.4,28 H 56 v 7.6 c 0,0.220914 -0.179086,0.4 -0.4,0.4 z m -20,0 H 24.4 C 24.179086,36 24,35.820914 24,35.6 V 24.4 C 24,24.179086 24.179086,24 24.4,24 h 11.2 c 0.220914,0 0.4,0.179086 0.4,0.4 V 35.6 C 36,35.820914 35.820914,36 35.6,36 Z M 64,23.6 V 20.4 C 64,20.179086 63.820914,20 63.6,20 H 60.4 C 60.179086,20 60,20.179086 60,20.4 v 3.2 c 0,0.220914 0.179086,0.4 0.4,0.4 h 3.2 c 0.220914,0 0.4,-0.179086 0.4,-0.4 z"
           id="path37883" />
      </g>
    </g>
    <g
       id="g37895"
       transform="translate(0.18573693,-37.279429)"
       style="display:inline">
      <rect
         x="9.1429138"
         y="120.74294"
         width="33.680813"
         height="33.680813"
         style="fill:#ffffff;stroke:none;stroke-width:0.75"
         id="rect37889"
         ry="0.82166028" />
      <g
         style="fill:#000000;stroke:none"
         id="g37893"
         transform="matrix(0.35521545,0,0,0.35521545,5.3808244,116.98085)">
        <path
           d="M 95.6,100 H 92.4 C 92.179086,100 92,99.820914 92,99.6 V 96 h 3.6 c 0.220914,0 0.4,0.179086 0.4,0.4 v 3.2 c 0,0.220914 -0.179086,0.4 -0.4,0.4 z m -8,0 H 84.4 C 84.179086,100 84,99.820914 84,99.6 V 96.4 C 84,96.179086 84.179086,96 84.4,96 H 88 v 3.6 c 0,0.220914 -0.179086,0.4 -0.4,0.4 z m -8,0 H 76.4 C 76.179086,100 76,99.820914 76,99.6 V 96 h 3.6 c 0.220914,0 0.4,0.179086 0.4,0.4 v 3.2 c 0,0.220914 -0.179086,0.4 -0.4,0.4 z m -12,0 H 64.4 C 64.179086,100 64,99.820914 64,99.6 V 96.4 C 64,96.179086 63.820914,96 63.6,96 H 60.4 C 60.179086,96 60,96.179086 60,96.4 v 3.2 c 0,0.220914 -0.179086,0.4 -0.4,0.4 H 56.4 C 56.179086,100 56,99.820914 56,99.6 V 88.4 C 56,88.179086 55.820914,88 55.6,88 H 52.4 C 52.179086,88 52,88.179086 52,88.4 v 11.2 c 0,0.220914 -0.179086,0.4 -0.4,0.4 H 48.4 C 48.179086,100 48,99.820914 48,99.6 V 80.4 C 48,80.179086 48.179086,80 48.4,80 h 3.2 C 51.820914,80 52,79.820914 52,79.6 V 76.4 C 52,76.179086 51.820914,76 51.6,76 H 48.4 C 48.179086,76 48,75.820914 48,75.6 V 68.4 C 48,68.179086 47.820914,68 47.6,68 H 32.4 C 32.179086,68 32,67.820914 32,67.6 V 60.4 C 32,60.179086 31.820914,60 31.6,60 H 28.4 C 28.179086,60 28,60.179086 28,60.4 v 3.2 C 28,63.820914 27.820914,64 27.6,64 H 24.4 C 24.179086,64 24,63.820914 24,63.6 V 60.4 C 24,60.179086 23.820914,60 23.6,60 H 20.4 C 20.179086,60 20,59.820914 20,59.6 V 56 h 15.6 c 0.220914,0 0.4,0.179086 0.4,0.4 v 3.2 c 0,0.220914 0.179086,0.4 0.4,0.4 H 40 v 3.6 c 0,0.220914 0.179086,0.4 0.4,0.4 h 7.2 C 47.820914,64 48,63.820914 48,63.6 V 60 h 4 v 11.6 c 0,0.220914 0.179086,0.4 0.4,0.4 h 3.2 C 55.820914,72 56,71.820914 56,71.6 V 60 h 7.6 C 63.820914,60 64,59.820914 64,59.6 V 56.4 C 64,56.179086 63.820914,56 63.6,56 H 60.4 C 60.179086,56 60,55.820914 60,55.6 V 48.4 C 60,48.179086 60.179086,48 60.4,48 h 3.2 c 0.220914,0 0.4,0.179086 0.4,0.4 v 3.2 c 0,0.220914 0.179086,0.4 0.4,0.4 h 3.2 C 67.820914,52 68,51.820914 68,51.6 V 48.4 C 68,48.179086 68.179086,48 68.4,48 h 3.2 c 0.220914,0 0.4,0.179086 0.4,0.4 v 3.2 c 0,0.220914 0.179086,0.4 0.4,0.4 H 76 v 3.6 c 0,0.220914 0.179086,0.4 0.4,0.4 h 3.2 c 0.220914,0 0.4,0.179086 0.4,0.4 v 3.2 C 80,59.820914 79.820914,60 79.6,60 H 76.4 C 76.179086,60 76,60.179086 76,60.4 V 64 H 68.4 C 68.179086,64 68,64.179086 68,64.4 V 72 H 64 V 64.4 C 64,64.179086 63.820914,64 63.6,64 H 60.4 C 60.179086,64 60,64.179086 60,64.4 v 7.2 c 0,0.220914 0.179086,0.4 0.4,0.4 H 64 v 3.6 C 64,75.820914 63.820914,76 63.6,76 H 60.4 C 60.179086,76 60,76.179086 60,76.4 v 3.2 c 0,0.220914 0.179086,0.4 0.4,0.4 h 3.2 c 0.220914,0 0.4,0.179086 0.4,0.4 v 3.2 c 0,0.220914 0.179086,0.4 0.4,0.4 h 3.2 C 67.820914,84 68,83.820914 68,83.6 V 80.4 C 68,80.179086 68.179086,80 68.4,80 h 3.2 c 0.220914,0 0.4,0.179086 0.4,0.4 v 3.2 c 0,0.220914 0.179086,0.4 0.4,0.4 H 80 v 7.6 C 80,91.820914 79.820914,92 79.6,92 H 76.4 C 76.179086,92 76,92.179086 76,92.4 V 96 H 68.4 C 68.179086,96 68,96.179086 68,96.4 v 3.2 c 0,0.220914 -0.179086,0.4 -0.4,0.4 z m -24,0 H 16.4 C 16.179086,100 16,99.820914 16,99.6 V 72.4 C 16,72.179086 16.179086,72 16.4,72 h 27.2 c 0.220914,0 0.4,0.179086 0.4,0.4 v 27.2 c 0,0.220914 -0.179086,0.4 -0.4,0.4 z m 48,-4 H 88 V 88.4 C 88,88.179086 87.820914,88 87.6,88 H 84.4 C 84.179086,88 84,87.820914 84,87.6 V 84.4 C 84,84.179086 83.820914,84 83.6,84 H 80 V 80.4 C 80,80.179086 79.820914,80 79.6,80 H 76.4 C 76.179086,80 76,79.820914 76,79.6 V 76.4 C 76,76.179086 76.179086,76 76.4,76 h 3.2 C 79.820914,76 80,75.820914 80,75.6 V 72 h 8 v 3.6 c 0,0.220914 0.179086,0.4 0.4,0.4 h 3.2 C 91.820914,76 92,75.820914 92,75.6 V 72.4 C 92,72.179086 91.820914,72 91.6,72 H 88 v -4 h 3.6 C 91.820914,68 92,67.820914 92,67.6 V 64 h 3.6 c 0.220914,0 0.4,0.179086 0.4,0.4 v 3.2 c 0,0.220914 0.179086,0.4 0.4,0.4 h 3.2 c 0.220914,0 0.4,0.179086 0.4,0.4 v 3.2 c 0,0.220914 -0.179086,0.4 -0.4,0.4 H 96.4 C 96.179086,72 96,72.179086 96,72.4 V 83.6 C 96,83.820914 95.820914,84 95.6,84 H 92 V 80.4 C 92,80.179086 91.820914,80 91.6,80 H 88.4 C 88.179086,80 88,80.179086 88,80.4 v 3.2 c 0,0.220914 0.179086,0.4 0.4,0.4 H 92 V 96 Z M 40,95.6 V 76.4 C 40,76.179086 39.820914,76 39.6,76 H 20.4 C 20.179086,76 20,76.179086 20,76.4 v 19.2 c 0,0.220914 0.179086,0.4 0.4,0.4 h 19.2 c 0.220914,0 0.4,-0.179086 0.4,-0.4 z m 32,-4 V 88.4 C 72,88.179086 71.820914,88 71.6,88 H 68.4 C 68.179086,88 68,88.179086 68,88.4 v 3.2 c 0,0.220914 0.179086,0.4 0.4,0.4 h 3.2 c 0.220914,0 0.4,-0.179086 0.4,-0.4 z m -8,0 V 88.4 C 64,88.179086 63.820914,88 63.6,88 H 60.4 C 60.179086,88 60,88.179086 60,88.4 v 3.2 c 0,0.220914 0.179086,0.4 0.4,0.4 h 3.2 C 63.820914,92 64,91.820914 64,91.6 Z M 35.6,92 H 24.4 C 24.179086,92 24,91.820914 24,91.6 V 80.4 C 24,80.179086 24.179086,80 24.4,80 h 11.2 c 0.220914,0 0.4,0.179086 0.4,0.4 v 11.2 c 0,0.220914 -0.179086,0.4 -0.4,0.4 z m 36,-16 H 68.4 C 68.179086,76 68,75.820914 68,75.6 V 72 h 3.6 c 0.220914,0 0.4,0.179086 0.4,0.4 v 3.2 c 0,0.220914 -0.179086,0.4 -0.4,0.4 z m 8,-4 H 76.4 C 76.179086,72 76,71.820914 76,71.6 V 64 h 3.6 c 0.220914,0 0.4,0.179086 0.4,0.4 V 72 Z m 8,-4 H 84.4 C 84.179086,68 84,67.820914 84,67.6 V 48.4 C 84,48.179086 84.179086,48 84.4,48 h 3.2 c 0.220914,0 0.4,0.179086 0.4,0.4 v 3.2 c 0,0.220914 0.179086,0.4 0.4,0.4 H 92 v 3.6 c 0,0.220914 0.179086,0.4 0.4,0.4 H 96 v 3.6 C 96,59.820914 95.820914,60 95.6,60 H 92.4 C 92.179086,60 92,60.179086 92,60.4 V 64 H 88.4 C 88.179086,64 88,64.179086 88,64.4 V 68 Z M 72,59.6 V 56.4 C 72,56.179086 71.820914,56 71.6,56 H 68.4 C 68.179086,56 68,56.179086 68,56.4 v 3.2 c 0,0.220914 0.179086,0.4 0.4,0.4 h 3.2 C 71.820914,60 72,59.820914 72,59.6 Z M 55.6,60 H 52 V 56.4 C 52,56.179086 52.179086,56 52.4,56 h 3.2 c 0.220914,0 0.4,0.179086 0.4,0.4 V 60 Z m -8,0 H 40 V 56.4 C 40,56.179086 40.179086,56 40.4,56 h 7.2 c 0.220914,0 0.4,0.179086 0.4,0.4 V 60 Z m 52,-4 H 96 v -4 h 3.6 c 0.220914,0 0.4,0.179086 0.4,0.4 v 3.2 c 0,0.220914 -0.179086,0.4 -0.4,0.4 z m -80,0 H 16.4 C 16.179086,56 16,55.820914 16,55.6 V 48.4 C 16,48.179086 16.179086,48 16.4,48 h 19.2 c 0.220914,0 0.4,0.179086 0.4,0.4 v 3.2 C 36,51.820914 35.820914,52 35.6,52 H 20.4 C 20.179086,52 20,52.179086 20,52.4 V 56 Z m 76,-4 H 92 V 48.4 C 92,48.179086 92.179086,48 92.4,48 h 3.2 c 0.220914,0 0.4,0.179086 0.4,0.4 V 52 Z m -16,0 H 76 V 48.4 C 76,48.179086 76.179086,48 76.4,48 h 3.2 c 0.220914,0 0.4,0.179086 0.4,0.4 v 3.2 c 0,0.220914 -0.179086,0.4 -0.4,0.4 z m -28,0 H 40.4 C 40.179086,52 40,51.820914 40,51.6 V 48.4 C 40,48.179086 40.179086,48 40.4,48 H 52 v 3.6 c 0,0.220914 -0.179086,0.4 -0.4,0.4 z m 4,-4 H 52 v -4 h 4 v 3.6 c 0,0.220914 -0.179086,0.4 -0.4,0.4 z m 44,-4 H 72.4 C 72.179086,44 72,43.820914 72,43.6 V 16.4 C 72,16.179086 72.179086,16 72.4,16 h 27.2 c 0.220914,0 0.4,0.179086 0.4,0.4 v 27.2 c 0,0.220914 -0.179086,0.4 -0.4,0.4 z m -32,0 H 64.4 C 64.179086,44 64,43.820914 64,43.6 V 40 h 3.6 c 0.220914,0 0.4,0.179086 0.4,0.4 v 3.2 c 0,0.220914 -0.179086,0.4 -0.4,0.4 z m -8,0 H 56 V 40.4 C 56,40.179086 56.179086,40 56.4,40 H 60 v 3.6 c 0,0.220914 -0.179086,0.4 -0.4,0.4 z m -8,0 H 48.4 C 48.179086,44 48,43.820914 48,43.6 V 36.4 C 48,36.179086 48.179086,36 48.4,36 H 52 v 8 z m -8,0 H 16.4 C 16.179086,44 16,43.820914 16,43.6 V 16.4 C 16,16.179086 16.179086,16 16.4,16 h 27.2 c 0.220914,0 0.4,0.179086 0.4,0.4 V 43.6 C 44,43.820914 43.820914,44 43.6,44 Z M 96,39.6 V 20.4 C 96,20.179086 95.820914,20 95.6,20 H 76.4 C 76.179086,20 76,20.179086 76,20.4 v 19.2 c 0,0.220914 0.179086,0.4 0.4,0.4 H 95.6 C 95.820914,40 96,39.820914 96,39.6 Z M 63.6,40 H 60 V 36.4 C 60,36.179086 60.179086,36 60.4,36 H 64 v 4 z M 40,39.6 V 20.4 C 40,20.179086 39.820914,20 39.6,20 H 20.4 C 20.179086,20 20,20.179086 20,20.4 v 19.2 c 0,0.220914 0.179086,0.4 0.4,0.4 H 39.6 C 39.820914,40 40,39.820914 40,39.6 Z M 91.6,36 H 80.4 C 80.179086,36 80,35.820914 80,35.6 V 24.4 C 80,24.179086 80.179086,24 80.4,24 h 11.2 c 0.220914,0 0.4,0.179086 0.4,0.4 v 11.2 c 0,0.220914 -0.179086,0.4 -0.4,0.4 z m -24,0 H 64 V 28.4 C 64,28.179086 63.820914,28 63.6,28 H 56 V 24.4 C 56,24.179086 55.820914,24 55.6,24 H 48.4 C 48.179086,24 48,23.820914 48,23.6 V 20.4 C 48,20.179086 48.179086,20 48.4,20 h 7.2 C 55.820914,20 56,19.820914 56,19.6 V 16.4 C 56,16.179086 56.179086,16 56.4,16 h 11.2 c 0.220914,0 0.4,0.179086 0.4,0.4 v 19.2 c 0,0.220914 -0.179086,0.4 -0.4,0.4 z m -12,0 H 52 V 32.4 C 52,32.179086 51.820914,32 51.6,32 H 48.4 C 48.179086,32 48,31.820914 48,31.6 V 28.4 C 48,28.179086 48.179086,28 48.4,28 H 56 v 7.6 c 0,0.220914 -0.179086,0.4 -0.4,0.4 z m -20,0 H 24.4 C 24.179086,36 24,35.820914 24,35.6 V 24.4 C 24,24.179086 24.179086,24 24.4,24 h 11.2 c 0.220914,0 0.4,0.179086 0.4,0.4 V 35.6 C 36,35.820914 35.820914,36 35.6,36 Z M 64,23.6 V 20.4 C 64,20.179086 63.820914,20 63.6,20 H 60.4 C 60.179086,20 60,20.179086 60,20.4 v 3.2 c 0,0.220914 0.179086,0.4 0.4,0.4 h 3.2 c 0.220914,0 0.4,-0.179086 0.4,-0.4 z"
           id="path37891" />
      </g>
    </g>
    <g
       id="g37903"
       transform="translate(0.18573693,47.201132)"
       style="display:inline">
      <rect
         x="9.1429138"
         y="120.74294"
         width="33.680813"
         height="33.680813"
         style="fill:#ffffff;stroke:none;stroke-width:0.75"
         id="rect37897"
         ry="0.82166028" />
      <g
         style="fill:#000000;stroke:none"
         id="g37901"
         transform="matrix(0.35521545,0,0,0.35521545,5.3808244,116.98085)">
        <path
           d="M 95.6,100 H 92.4 C 92.179086,100 92,99.820914 92,99.6 V 96 h 3.6 c 0.220914,0 0.4,0.179086 0.4,0.4 v 3.2 c 0,0.220914 -0.179086,0.4 -0.4,0.4 z m -8,0 H 84.4 C 84.179086,100 84,99.820914 84,99.6 V 96.4 C 84,96.179086 84.179086,96 84.4,96 H 88 v 3.6 c 0,0.220914 -0.179086,0.4 -0.4,0.4 z m -8,0 H 76.4 C 76.179086,100 76,99.820914 76,99.6 V 96 h 3.6 c 0.220914,0 0.4,0.179086 0.4,0.4 v 3.2 c 0,0.220914 -0.179086,0.4 -0.4,0.4 z m -12,0 H 64.4 C 64.179086,100 64,99.820914 64,99.6 V 96.4 C 64,96.179086 63.820914,96 63.6,96 H 60.4 C 60.179086,96 60,96.179086 60,96.4 v 3.2 c 0,0.220914 -0.179086,0.4 -0.4,0.4 H 56.4 C 56.179086,100 56,99.820914 56,99.6 V 88.4 C 56,88.179086 55.820914,88 55.6,88 H 52.4 C 52.179086,88 52,88.179086 52,88.4 v 11.2 c 0,0.220914 -0.179086,0.4 -0.4,0.4 H 48.4 C 48.179086,100 48,99.820914 48,99.6 V 80.4 C 48,80.179086 48.179086,80 48.4,80 h 3.2 C 51.820914,80 52,79.820914 52,79.6 V 76.4 C 52,76.179086 51.820914,76 51.6,76 H 48.4 C 48.179086,76 48,75.820914 48,75.6 V 68.4 C 48,68.179086 47.820914,68 47.6,68 H 32.4 C 32.179086,68 32,67.820914 32,67.6 V 60.4 C 32,60.179086 31.820914,60 31.6,60 H 28.4 C 28.179086,60 28,60.179086 28,60.4 v 3.2 C 28,63.820914 27.820914,64 27.6,64 H 24.4 C 24.179086,64 24,63.820914 24,63.6 V 60.4 C 24,60.179086 23.820914,60 23.6,60 H 20.4 C 20.179086,60 20,59.820914 20,59.6 V 56 h 15.6 c 0.220914,0 0.4,0.179086 0.4,0.4 v 3.2 c 0,0.220914 0.179086,0.4 0.4,0.4 H 40 v 3.6 c 0,0.220914 0.179086,0.4 0.4,0.4 h 7.2 C 47.820914,64 48,63.820914 48,63.6 V 60 h 4 v 11.6 c 0,0.220914 0.179086,0.4 0.4,0.4 h 3.2 C 55.820914,72 56,71.820914 56,71.6 V 60 h 7.6 C 63.820914,60 64,59.820914 64,59.6 V 56.4 C 64,56.179086 63.820914,56 63.6,56 H 60.4 C 60.179086,56 60,55.820914 60,55.6 V 48.4 C 60,48.179086 60.179086,48 60.4,48 h 3.2 c 0.220914,0 0.4,0.179086 0.4,0.4 v 3.2 c 0,0.220914 0.179086,0.4 0.4,0.4 h 3.2 C 67.820914,52 68,51.820914 68,51.6 V 48.4 C 68,48.179086 68.179086,48 68.4,48 h 3.2 c 0.220914,0 0.4,0.179086 0.4,0.4 v 3.2 c 0,0.220914 0.179086,0.4 0.4,0.4 H 76 v 3.6 c 0,0.220914 0.179086,0.4 0.4,0.4 h 3.2 c 0.220914,0 0.4,0.179086 0.4,0.4 v 3.2 C 80,59.820914 79.820914,60 79.6,60 H 76.4 C 76.179086,60 76,60.179086 76,60.4 V 64 H 68.4 C 68.179086,64 68,64.179086 68,64.4 V 72 H 64 V 64.4 C 64,64.179086 63.820914,64 63.6,64 H 60.4 C 60.179086,64 60,64.179086 60,64.4 v 7.2 c 0,0.220914 0.179086,0.4 0.4,0.4 H 64 v 3.6 C 64,75.820914 63.820914,76 63.6,76 H 60.4 C 60.179086,76 60,76.179086 60,76.4 v 3.2 c 0,0.220914 0.179086,0.4 0.4,0.4 h 3.2 c 0.220914,0 0.4,0.179086 0.4,0.4 v 3.2 c 0,0.220914 0.179086,0.4 0.4,0.4 h 3.2 C 67.820914,84 68,83.820914 68,83.6 V 80.4 C 68,80.179086 68.179086,80 68.4,80 h 3.2 c 0.220914,0 0.4,0.179086 0.4,0.4 v 3.2 c 0,0.220914 0.179086,0.4 0.4,0.4 H 80 v 7.6 C 80,91.820914 79.820914,92 79.6,92 H 76.4 C 76.179086,92 76,92.179086 76,92.4 V 96 H 68.4 C 68.179086,96 68,96.179086 68,96.4 v 3.2 c 0,0.220914 -0.179086,0.4 -0.4,0.4 z m -24,0 H 16.4 C 16.179086,100 16,99.820914 16,99.6 V 72.4 C 16,72.179086 16.179086,72 16.4,72 h 27.2 c 0.220914,0 0.4,0.179086 0.4,0.4 v 27.2 c 0,0.220914 -0.179086,0.4 -0.4,0.4 z m 48,-4 H 88 V 88.4 C 88,88.179086 87.820914,88 87.6,88 H 84.4 C 84.179086,88 84,87.820914 84,87.6 V 84.4 C 84,84.179086 83.820914,84 83.6,84 H 80 V 80.4 C 80,80.179086 79.820914,80 79.6,80 H 76.4 C 76.179086,80 76,79.820914 76,79.6 V 76.4 C 76,76.179086 76.179086,76 76.4,76 h 3.2 C 79.820914,76 80,75.820914 80,75.6 V 72 h 8 v 3.6 c 0,0.220914 0.179086,0.4 0.4,0.4 h 3.2 C 91.820914,76 92,75.820914 92,75.6 V 72.4 C 92,72.179086 91.820914,72 91.6,72 H 88 v -4 h 3.6 C 91.820914,68 92,67.820914 92,67.6 V 64 h 3.6 c 0.220914,0 0.4,0.179086 0.4,0.4 v 3.2 c 0,0.220914 0.179086,0.4 0.4,0.4 h 3.2 c 0.220914,0 0.4,0.179086 0.4,0.4 v 3.2 c 0,0.220914 -0.179086,0.4 -0.4,0.4 H 96.4 C 96.179086,72 96,72.179086 96,72.4 V 83.6 C 96,83.820914 95.820914,84 95.6,84 H 92 V 80.4 C 92,80.179086 91.820914,80 91.6,80 H 88.4 C 88.179086,80 88,80.179086 88,80.4 v 3.2 c 0,0.220914 0.179086,0.4 0.4,0.4 H 92 V 96 Z M 40,95.6 V 76.4 C 40,76.179086 39.820914,76 39.6,76 H 20.4 C 20.179086,76 20,76.179086 20,76.4 v 19.2 c 0,0.220914 0.179086,0.4 0.4,0.4 h 19.2 c 0.220914,0 0.4,-0.179086 0.4,-0.4 z m 32,-4 V 88.4 C 72,88.179086 71.820914,88 71.6,88 H 68.4 C 68.179086,88 68,88.179086 68,88.4 v 3.2 c 0,0.220914 0.179086,0.4 0.4,0.4 h 3.2 c 0.220914,0 0.4,-0.179086 0.4,-0.4 z m -8,0 V 88.4 C 64,88.179086 63.820914,88 63.6,88 H 60.4 C 60.179086,88 60,88.179086 60,88.4 v 3.2 c 0,0.220914 0.179086,0.4 0.4,0.4 h 3.2 C 63.820914,92 64,91.820914 64,91.6 Z M 35.6,92 H 24.4 C 24.179086,92 24,91.820914 24,91.6 V 80.4 C 24,80.179086 24.179086,80 24.4,80 h 11.2 c 0.220914,0 0.4,0.179086 0.4,0.4 v 11.2 c 0,0.220914 -0.179086,0.4 -0.4,0.4 z m 36,-16 H 68.4 C 68.179086,76 68,75.820914 68,75.6 V 72 h 3.6 c 0.220914,0 0.4,0.179086 0.4,0.4 v 3.2 c 0,0.220914 -0.179086,0.4 -0.4,0.4 z m 8,-4 H 76.4 C 76.179086,72 76,71.820914 76,71.6 V 64 h 3.6 c 0.220914,0 0.4,0.179086 0.4,0.4 V 72 Z m 8,-4 H 84.4 C 84.179086,68 84,67.820914 84,67.6 V 48.4 C 84,48.179086 84.179086,48 84.4,48 h 3.2 c 0.220914,0 0.4,0.179086 0.4,0.4 v 3.2 c 0,0.220914 0.179086,0.4 0.4,0.4 H 92 v 3.6 c 0,0.220914 0.179086,0.4 0.4,0.4 H 96 v 3.6 C 96,59.820914 95.820914,60 95.6,60 H 92.4 C 92.179086,60 92,60.179086 92,60.4 V 64 H 88.4 C 88.179086,64 88,64.179086 88,64.4 V 68 Z M 72,59.6 V 56.4 C 72,56.179086 71.820914,56 71.6,56 H 68.4 C 68.179086,56 68,56.179086 68,56.4 v 3.2 c 0,0.220914 0.179086,0.4 0.4,0.4 h 3.2 C 71.820914,60 72,59.820914 72,59.6 Z M 55.6,60 H 52 V 56.4 C 52,56.179086 52.179086,56 52.4,56 h 3.2 c 0.220914,0 0.4,0.179086 0.4,0.4 V 60 Z m -8,0 H 40 V 56.4 C 40,56.179086 40.179086,56 40.4,56 h 7.2 c 0.220914,0 0.4,0.179086 0.4,0.4 V 60 Z m 52,-4 H 96 v -4 h 3.6 c 0.220914,0 0.4,0.179086 0.4,0.4 v 3.2 c 0,0.220914 -0.179086,0.4 -0.4,0.4 z m -80,0 H 16.4 C 16.179086,56 16,55.820914 16,55.6 V 48.4 C 16,48.179086 16.179086,48 16.4,48 h 19.2 c 0.220914,0 0.4,0.179086 0.4,0.4 v 3.2 C 36,51.820914 35.820914,52 35.6,52 H 20.4 C 20.179086,52 20,52.179086 20,52.4 V 56 Z m 76,-4 H 92 V 48.4 C 92,48.179086 92.179086,48 92.4,48 h 3.2 c 0.220914,0 0.4,0.179086 0.4,0.4 V 52 Z m -16,0 H 76 V 48.4 C 76,48.179086 76.179086,48 76.4,48 h 3.2 c 0.220914,0 0.4,0.179086 0.4,0.4 v 3.2 c 0,0.220914 -0.179086,0.4 -0.4,0.4 z m -28,0 H 40.4 C 40.179086,52 40,51.820914 40,51.6 V 48.4 C 40,48.179086 40.179086,48 40.4,48 H 52 v 3.6 c 0,0.220914 -0.179086,0.4 -0.4,0.4 z m 4,-4 H 52 v -4 h 4 v 3.6 c 0,0.220914 -0.179086,0.4 -0.4,0.4 z m 44,-4 H 72.4 C 72.179086,44 72,43.820914 72,43.6 V 16.4 C 72,16.179086 72.179086,16 72.4,16 h 27.2 c 0.220914,0 0.4,0.179086 0.4,0.4 v 27.2 c 0,0.220914 -0.179086,0.4 -0.4,0.4 z m -32,0 H 64.4 C 64.179086,44 64,43.820914 64,43.6 V 40 h 3.6 c 0.220914,0 0.4,0.179086 0.4,0.4 v 3.2 c 0,0.220914 -0.179086,0.4 -0.4,0.4 z m -8,0 H 56 V 40.4 C 56,40.179086 56.179086,40 56.4,40 H 60 v 3.6 c 0,0.220914 -0.179086,0.4 -0.4,0.4 z m -8,0 H 48.4 C 48.179086,44 48,43.820914 48,43.6 V 36.4 C 48,36.179086 48.179086,36 48.4,36 H 52 v 8 z m -8,0 H 16.4 C 16.179086,44 16,43.820914 16,43.6 V 16.4 C 16,16.179086 16.179086,16 16.4,16 h 27.2 c 0.220914,0 0.4,0.179086 0.4,0.4 V 43.6 C 44,43.820914 43.820914,44 43.6,44 Z M 96,39.6 V 20.4 C 96,20.179086 95.820914,20 95.6,20 H 76.4 C 76.179086,20 76,20.179086 76,20.4 v 19.2 c 0,0.220914 0.179086,0.4 0.4,0.4 H 95.6 C 95.820914,40 96,39.820914 96,39.6 Z M 63.6,40 H 60 V 36.4 C 60,36.179086 60.179086,36 60.4,36 H 64 v 4 z M 40,39.6 V 20.4 C 40,20.179086 39.820914,20 39.6,20 H 20.4 C 20.179086,20 20,20.179086 20,20.4 v 19.2 c 0,0.220914 0.179086,0.4 0.4,0.4 H 39.6 C 39.820914,40 40,39.820914 40,39.6 Z M 91.6,36 H 80.4 C 80.179086,36 80,35.820914 80,35.6 V 24.4 C 80,24.179086 80.179086,24 80.4,24 h 11.2 c 0.220914,0 0.4,0.179086 0.4,0.4 v 11.2 c 0,0.220914 -0.179086,0.4 -0.4,0.4 z m -24,0 H 64 V 28.4 C 64,28.179086 63.820914,28 63.6,28 H 56 V 24.4 C 56,24.179086 55.820914,24 55.6,24 H 48.4 C 48.179086,24 48,23.820914 48,23.6 V 20.4 C 48,20.179086 48.179086,20 48.4,20 h 7.2 C 55.820914,20 56,19.820914 56,19.6 V 16.4 C 56,16.179086 56.179086,16 56.4,16 h 11.2 c 0.220914,0 0.4,0.179086 0.4,0.4 v 19.2 c 0,0.220914 -0.179086,0.4 -0.4,0.4 z m -12,0 H 52 V 32.4 C 52,32.179086 51.820914,32 51.6,32 H 48.4 C 48.179086,32 48,31.820914 48,31.6 V 28.4 C 48,28.179086 48.179086,28 48.4,28 H 56 v 7.6 c 0,0.220914 -0.179086,0.4 -0.4,0.4 z m -20,0 H 24.4 C 24.179086,36 24,35.820914 24,35.6 V 24.4 C 24,24.179086 24.179086,24 24.4,24 h 11.2 c 0.220914,0 0.4,0.179086 0.4,0.4 V 35.6 C 36,35.820914 35.820914,36 35.6,36 Z M 64,23.6 V 20.4 C 64,20.179086 63.820914,20 63.6,20 H 60.4 C 60.179086,20 60,20.179086 60,20.4 v 3.2 c 0,0.220914 0.179086,0.4 0.4,0.4 h 3.2 c 0.220914,0 0.4,-0.179086 0.4,-0.4 z"
           id="path37899" />
      </g>
    </g>
    <g
       id="g31398"
       transform="translate(0.18573693,4.7526644)"
       style="display:inline">
      <text
         xml:space="preserve"
         style="font-size:9.87778px;line-height:1.25;font-family:sans-serif;display:inline;stroke-width:0.264583"
         x="56.286469"
         y="145.37822"
         id="text36426"><tspan
           sodipodi:role="line"
           id="tspan36424"
           style="font-size:9.87778px;stroke-width:0.264583"
           x="56.286469"
           y="145.37822">22</tspan></text>
      <text
         xml:space="preserve"
         style="font-size:7.05556px;line-height:1.25;font-family:sans-serif;letter-spacing:0px;word-spacing:0px;fill:#b2b2b2;fill-opacity:1;stroke-width:0.265;stroke-miterlimit:4;stroke-dasharray:none"
         x="52.776329"
         y="135.12598"
         id="text10274"><tspan
           sodipodi:role="line"
           id="tspan10272"
           style="font-size:7.05556px;fill:#b2b2b2;fill-opacity:1;stroke-width:0.265;stroke-miterlimit:4;stroke-dasharray:none"
           x="52.776329"
           y="135.12598">Score</tspan></text>
    </g>
    <g
       id="g31762"
       style="display:inline"
       transform="translate(0.18573693,4.8673007)">
      <text
         xml:space="preserve"
         style="font-style:normal;font-variant:normal;font-weight:normal;font-stretch:normal;font-size:9.87778px;line-height:1.25;font-family:sans-serif;-inkscape-font-specification:'sans-serif, Normal';font-variant-ligatures:normal;font-variant-caps:normal;font-variant-numeric:normal;font-variant-east-asian:normal;display:inline;stroke-width:0.264583"
         x="50.41906"
         y="103.11685"
         id="text31402"><tspan
           sodipodi:role="line"
           id="tspan31432"
           x="50.41906"
           y="103.11685">1000</tspan><tspan
           sodipodi:role="line"
           id="tspan31434"
           x="50.41906"
           y="115.46407" /></text>
      <text
         xml:space="preserve"
         style="font-size:7.05556px;line-height:1.25;font-family:sans-serif;letter-spacing:0px;word-spacing:0px;fill:#b2b2b2;fill-opacity:1;stroke-width:0.265;stroke-miterlimit:4;stroke-dasharray:none"
         x="52.776329"
         y="92.864609"
         id="text31406"><tspan
           sodipodi:role="line"
           id="tspan31404"
           style="font-size:7.05556px;fill:#b2b2b2;fill-opacity:1;stroke-width:0.265;stroke-miterlimit:4;stroke-dasharray:none"
           x="52.776329"
           y="92.864609">Score</tspan></text>
    </g>
    <g
       id="g31749"
       style="display:inline"
       transform="translate(0.18573693,4.8673007)">
      <text
         xml:space="preserve"
         style="font-style:normal;font-variant:normal;font-weight:normal;font-stretch:normal;font-size:9.87778px;line-height:1.25;font-family:sans-serif;-inkscape-font-specification:'sans-serif, Normal';font-variant-ligatures:normal;font-variant-caps:normal;font-variant-numeric:normal;font-variant-east-asian:normal;display:inline;stroke-width:0.264583"
         x="59.062122"
         y="187.59741"
         id="text31598"><tspan
           sodipodi:role="line"
           id="tspan31639"
           x="59.062122"
           y="187.59741">5</tspan></text>
      <text
         xml:space="preserve"
         style="font-size:7.05556px;line-height:1.25;font-family:sans-serif;letter-spacing:0px;word-spacing:0px;fill:#b2b2b2;fill-opacity:1;stroke-width:0.265;stroke-miterlimit:4;stroke-dasharray:none"
         x="52.776329"
         y="177.34517"
         id="text31602"><tspan
           sodipodi:role="line"
           id="tspan31600"
           style="font-size:7.05556px;fill:#b2b2b2;fill-opacity:1;stroke-width:0.265;stroke-miterlimit:4;stroke-dasharray:none"
           x="52.776329"
           y="177.34517">Score</tspan></text>
    </g>
    <g
       id="g31755"
       style="display:inline"
       transform="translate(0.18573693,4.8673007)">
      <text
         xml:space="preserve"
         style="font-style:normal;font-variant:normal;font-weight:normal;font-stretch:normal;font-size:9.87778px;line-height:1.25;font-family:sans-serif;-inkscape-font-specification:'sans-serif, Normal';font-variant-ligatures:normal;font-variant-caps:normal;font-variant-numeric:normal;font-variant-east-asian:normal;display:inline;stroke-width:0.264583"
         x="59.111511"
         y="229.93074"
         id="text31609"><tspan
           sodipodi:role="line"
           id="tspan31663"
           x="59.111511"
           y="229.93074">2</tspan></text>
      <text
         xml:space="preserve"
         style="font-size:7.05556px;line-height:1.25;font-family:sans-serif;letter-spacing:0px;word-spacing:0px;fill:#b2b2b2;fill-opacity:1;stroke-width:0.265;stroke-miterlimit:4;stroke-dasharray:none"
         x="52.776329"
         y="219.6785"
         id="text31613"><tspan
           sodipodi:role="line"
           id="tspan31611"
           style="font-size:7.05556px;fill:#b2b2b2;fill-opacity:1;stroke-width:0.265;stroke-miterlimit:4;stroke-dasharray:none"
           x="52.776329"
           y="219.6785">Score</tspan></text>
    </g>
    <rect
       style="font-variation-settings:normal;display:inline;vector-effect:none;fill:#f0f0f0;fill-opacity:1;fill-rule:evenodd;stroke-width:0.825279;stroke-linecap:butt;stroke-linejoin:miter;stroke-miterlimit:4;stroke-dasharray:none;stroke-dashoffset:0;stroke-opacity:1;-inkscape-stroke:none;stop-color:#000000"
       id="rect13608"
       width="6.2987781"
       height="169.03532"
       x="199.87929"
       y="79.035942" />
    <rect
       style="font-variation-settings:normal;display:inline;vector-effect:none;fill:#808080;fill-opacity:1;fill-rule:evenodd;stroke-width:0.796518;stroke-linecap:butt;stroke-linejoin:miter;stroke-miterlimit:4;stroke-dasharray:none;stroke-dashoffset:0;stroke-opacity:1;-inkscape-stroke:none;stop-color:#000000"
       id="rect13676"
       width="6.0792599"
       height="30.925314"
       x="199.98903"
       y="80.669502"
       ry="5.0382781" />
    <text
       xml:space="preserve"
       style="font-size:7.05556px;line-height:1.25;font-family:sans-serif;display:inline;stroke-width:0.264583"
       x="75.927559"
       y="76.321388"
       id="text5491"><tspan
         sodipodi:role="line"
         id="tspan5489"
         style="stroke-width:0.264583"
         x="75.927559"
         y="76.321388"><tspan
   style="font-style:normal;font-variant:normal;font-weight:bold;font-stretch:normal;font-family:sans-serif;-inkscape-font-specification:'sans-serif Bold'"
   id="tspan32935">Total Score:</tspan> 9999</tspan></text>
  </g>
  <g
     inkscape:groupmode="layer"
     id="layer4"
     inkscape:label="Header"
     style="display:inline">
    <g
       id="g1668"
       style="display:inline"
       transform="translate(-0.3586731,-1.0327946)">
      <circle
         style="display:inline;opacity:1;fill:#e5e5e5;fill-opacity:1;stroke-width:0.499999"
         id="circle35100"
         cx="105.71735"
         cy="274.26596"
         r="15.861898" />
      <circle
         style="display:inline;opacity:1;fill:#fcfcfc;fill-opacity:1;stroke-width:0.499999"
         id="path34792"
         cx="105"
         cy="273.54868"
         r="15.861898" />
      <path
         id="primary"
         d="m 104.61984,266.37215 -6.632603,6.16973 a 0.88050509,1.3203226 0 0 0 0,2.19642 l 6.632603,6.16973 a 0.82290193,1.2339464 0 0 0 1.20143,-1.55477 l -0.69123,-3.28229 h 6.45155 a 0.82290193,1.2339464 0 0 0 0.8229,-1.23395 v -2.46789 a 0.82290193,1.2339464 0 0 0 -0.8229,-1.23395 h -6.45155 l 0.69123,-3.2823 a 0.82290193,1.2339464 0 0 0 -1.20143,-1.48073 z"
         style="display:inline;fill:none;stroke:#000000;stroke-width:2.01536px;stroke-linecap:round;stroke-linejoin:round" />
    </g>
    <text
       xml:space="preserve"
       style="font-size:7.05556px;line-height:1.25;font-family:sans-serif;stroke-width:0.348258"
       x="37.73035"
       y="60.552933"
       id="text25394"
       transform="scale(1.0050613,0.99496419)"><tspan
         sodipodi:role="line"
         id="tspan25392"
         style="font-size:7.05556px;fill:#808080;fill-opacity:1;stroke-width:0.348258"
         x="37.73035"
         y="60.552933">&lt;username&gt;</tspan></text>
    <text
       xml:space="preserve"
       style="font-size:8.46667px;line-height:1.25;font-family:sans-serif;stroke-width:0.264583"
       x="112.15292"
       y="19.79237"
       id="text3963"><tspan
         sodipodi:role="line"
         id="tspan3961"
         style="font-size:8.46667px;stroke-width:0.264583"
         x="112.15292"
         y="19.79237">Contact Information</tspan></text>
    <text
       xml:space="preserve"
       style="font-size:6.35px;line-height:1.25;font-family:sans-serif;stroke-width:0.264583"
       x="112.41397"
       y="28.670063"
       id="text8359"><tspan
         sodipodi:role="line"
         id="tspan8357"
         style="font-size:4.93889px;fill:#bfbfbf;fill-opacity:1;stroke-width:0.264583"
         x="112.41397"
         y="28.670063">Phone Number</tspan><tspan
         sodipodi:role="line"
         style="font-size:6.35px;stroke-width:0.264583"
         x="112.41397"
         y="36.607563"
         id="tspan59826">780-700-0000</tspan></text>
    <text
       xml:space="preserve"
       style="font-size:6.35px;line-height:1.25;font-family:sans-serif;stroke-width:0.264583"
       x="112.13953"
       y="46.115826"
       id="text18957"><tspan
         sodipodi:role="line"
         id="tspan18955"
         style="font-size:4.93889px;fill:#bfbfbf;fill-opacity:1;stroke-width:0.264583"
         x="112.13953"
         y="46.115826">Email</tspan><tspan
         sodipodi:role="line"
         style="font-size:6.35px;stroke-width:0.264583"
         x="112.13953"
         y="54.053326"
         id="tspan64174">player@qrcode.com</tspan></text>
    <g
       id="g15377"
       transform="matrix(0.75740312,0,0,0.75740312,-20.704497,-14.658711)"
       style="display:inline">
      <circle
         style="fill:#f0f1f2;fill-opacity:1;stroke:none;stroke-width:0.499999;stroke-miterlimit:4;stroke-dasharray:none;stroke-opacity:1"
         id="path5120"
         cx="105"
         cy="62.645542"
         r="25.711342" />
      <circle
         style="fill:#ffffff;fill-opacity:1;stroke:none;stroke-width:0.54186;stroke-miterlimit:4;stroke-dasharray:none;stroke-opacity:1"
         id="path5224"
         cx="105"
         cy="57.225338"
         r="7.1362123" />
      <path
         id="rect8859"
         style="fill:#ffffff;fill-opacity:1;stroke:none;stroke-width:0.392181;stroke-miterlimit:4;stroke-dasharray:none;stroke-opacity:1"
         d="m 97.692177,63.882923 c -2.830219,0 -5.108731,2.278512 -5.108731,5.108731 v 15.228527 c 0,0.333127 0.0327,0.658045 0.09302,0.973066 a 25.711341,25.711341 0 0 0 12.323274,3.163634 25.711341,25.711341 0 0 0 12.32328,-3.163115 c 0.0604,-0.31518 0.0935,-0.640284 0.0935,-0.973585 V 68.991654 c 0,-2.830219 -2.27851,-5.108731 -5.10873,-5.108731 z" />
    </g>
  </g>
</svg>
