<?xml version="1.0" encoding="UTF-8" standalone="no"?>
<!-- Created with Inkscape (http://www.inkscape.org/) -->

<svg
   width="210mm"
   height="297mm"
   viewBox="0 0 210 297"
   version="1.1"
   id="svg80980"
   inkscape:version="1.1.2 (0a00cf5339, 2022-02-04)"
   sodipodi:docname="qr-interface.svg"
   inkscape:export-filename="/home/michael/bitmap.png"
   inkscape:export-xdpi="300"
   inkscape:export-ydpi="300"
   xmlns:inkscape="http://www.inkscape.org/namespaces/inkscape"
   xmlns:sodipodi="http://sodipodi.sourceforge.net/DTD/sodipodi-0.dtd"
   xmlns="http://www.w3.org/2000/svg"
   xmlns:svg="http://www.w3.org/2000/svg">
  <sodipodi:namedview
     id="namedview80982"
     pagecolor="#505050"
     bordercolor="#eeeeee"
     borderopacity="1"
     inkscape:pageshadow="0"
     inkscape:pageopacity="0"
     inkscape:pagecheckerboard="0"
     inkscape:document-units="mm"
     showgrid="false"
     showguides="true"
     inkscape:guide-bbox="true"
     inkscape:zoom="1.1244218"
     inkscape:cx="324.61127"
     inkscape:cy="474.46606"
     inkscape:window-width="3840"
     inkscape:window-height="2098"
     inkscape:window-x="0"
     inkscape:window-y="62"
     inkscape:window-maximized="1"
     inkscape:current-layer="layer18" />
  <defs
     id="defs80977" />
  <g
     inkscape:label="Background"
     inkscape:groupmode="layer"
     id="layer1"
     style="display:inline"
     sodipodi:insensitive="true">
    <g
       id="g81351"
       transform="translate(-0.10230365,0.76149319)">
      <g
         inkscape:label="Background"
         id="layer1-1"
         style="display:inline">
        <rect
           style="fill:#ffffff;stroke:#ffffff;stroke-width:0.499999"
           id="rect854"
           width="209.84608"
           height="297.9021"
           x="0.26311606"
           y="-0.55316401" />
      </g>
    </g>
  </g>
  <g
     inkscape:groupmode="layer"
     id="layer17"
     inkscape:label="QR"
     style="display:inline">
    <text
       xml:space="preserve"
       style="font-size:4.23333px;line-height:1.25;font-family:sans-serif;letter-spacing:0px;word-spacing:0px;stroke-width:0.264583"
       id="text83208"
       y="91.235878"
       x="20.777987"><tspan
         sodipodi:role="line"
         id="tspan83206"
         style="font-size:4.23333px;fill:#bfbfbf;fill-opacity:1;stroke-width:0.264583"
         x="20.777987"
         y="91.235878">Hash</tspan><tspan
         sodipodi:role="line"
         style="font-size:7.05556px;stroke-width:0.264583"
         x="20.777987"
         y="99.095413"
         id="tspan113137">1234567890abcdefghijklmnopqrstuvwxyz1b2b</tspan></text>
    <text
       xml:space="preserve"
       style="font-size:4.23333px;line-height:1.25;font-family:sans-serif;letter-spacing:0px;word-spacing:0px;stroke-width:0.264583"
       x="38.853798"
       y="117.6058"
       id="text95994"><tspan
         sodipodi:role="line"
         id="tspan95992"
         style="font-size:4.23333px;stroke-width:0.264583"
         x="38.853798"
         y="117.6058" /></text>
    <text
       xml:space="preserve"
       style="font-size:8.46667px;line-height:1.5;font-family:sans-serif;text-align:center;letter-spacing:0px;word-spacing:0px;text-anchor:middle;stroke-width:0.264583"
       x="147.33853"
       y="34.615387"
       id="text102204"><tspan
         sodipodi:role="line"
         id="tspan102202"
         style="font-size:7.05556px;text-align:center;text-anchor:middle;fill:#bfbfbf;fill-opacity:1;stroke-width:0.264583"
         x="147.33853"
         y="34.615387">Location</tspan><tspan
         sodipodi:role="line"
         style="font-size:9.87778px;text-align:center;text-anchor:middle;stroke-width:0.264583"
         x="147.33853"
         y="48.775715"
         id="tspan53861">Edmonton</tspan></text>
    <text
       xml:space="preserve"
       style="font-size:8.46667px;line-height:1.25;font-family:sans-serif;letter-spacing:0px;word-spacing:0px;stroke-width:0.264583"
       x="92.147476"
       y="68.270676"
       id="text123873"><tspan
         sodipodi:role="line"
         style="font-size:6.35px;fill:#bfbfbf;fill-opacity:1;stroke-width:0.264583"
         x="92.147476"
         y="68.270676"
         id="tspan79923">Time</tspan><tspan
         sodipodi:role="line"
         style="font-size:7.05556px;stroke-width:0.264583"
         x="92.147476"
         y="78.854012"
         id="tspan86237">00:00 on February 14, 2022</tspan></text>
    <text
       xml:space="preserve"
       style="font-size:8.46667px;line-height:1.5;font-family:sans-serif;text-align:center;letter-spacing:0px;word-spacing:0px;text-anchor:middle;stroke-width:0.264583"
       x="100.99162"
       y="34.523666"
       id="text156085"><tspan
         sodipodi:role="line"
         style="font-size:7.05556px;text-align:center;text-anchor:middle;fill:#bfbfbf;fill-opacity:1;stroke-width:0.264583"
         x="100.99162"
         y="34.523666"
         id="tspan38871">Score</tspan><tspan
         sodipodi:role="line"
         style="font-size:9.87778px;text-align:center;text-anchor:middle;stroke-width:0.264583"
         x="100.99162"
         y="48.683994"
         id="tspan43017">999</tspan></text>
    <rect
       x="17.925154"
       y="15.299483"
       width="68.53624"
       height="68.53624"
       style="display:inline;fill:#ffffff;stroke:none;stroke-width:0.196944"
       id="rect114353" />
    <g
       style="display:inline;fill:#000000;stroke:none"
       id="g114357"
       transform="matrix(0.22950206,0,0,0.22950206,10.17252,11.721638)">
      <path
         d="m 286.8,300 h -9.6 c -0.66274,0 -1.2,-0.53726 -1.2,-1.2 V 288 h 10.8 c 0.66274,0 1.2,0.53726 1.2,1.2 v 9.6 c 0,0.66274 -0.53726,1.2 -1.2,1.2 z m -24,0 h -9.6 c -0.66274,0 -1.2,-0.53726 -1.2,-1.2 v -9.6 c 0,-0.66274 0.53726,-1.2 1.2,-1.2 H 264 v 10.8 c 0,0.66274 -0.53726,1.2 -1.2,1.2 z m -24,0 h -9.6 c -0.66274,0 -1.2,-0.53726 -1.2,-1.2 V 288 h 10.8 c 0.66274,0 1.2,0.53726 1.2,1.2 v 9.6 c 0,0.66274 -0.53726,1.2 -1.2,1.2 z m -36,0 h -9.6 c -0.66274,0 -1.2,-0.53726 -1.2,-1.2 v -9.6 c 0,-0.66274 -0.53726,-1.2 -1.2,-1.2 h -9.6 c -0.66274,0 -1.2,0.53726 -1.2,1.2 v 9.6 c 0,0.66274 -0.53726,1.2 -1.2,1.2 h -9.6 c -0.66274,0 -1.2,-0.53726 -1.2,-1.2 v -33.6 c 0,-0.66274 -0.53726,-1.2 -1.2,-1.2 h -9.6 c -0.66274,0 -1.2,0.53726 -1.2,1.2 v 33.6 c 0,0.66274 -0.53726,1.2 -1.2,1.2 h -9.6 c -0.66274,0 -1.2,-0.53726 -1.2,-1.2 v -57.6 c 0,-0.66274 0.53726,-1.2 1.2,-1.2 h 9.6 c 0.66274,0 1.2,-0.53726 1.2,-1.2 v -9.6 c 0,-0.66274 -0.53726,-1.2 -1.2,-1.2 h -9.6 c -0.66274,0 -1.2,-0.53726 -1.2,-1.2 v -21.6 c 0,-0.66274 -0.53726,-1.2 -1.2,-1.2 H 97.2 c -0.662742,0 -1.2,-0.53726 -1.2,-1.2 v -21.6 c 0,-0.66274 -0.537258,-1.2 -1.2,-1.2 h -9.6 c -0.662742,0 -1.2,0.53726 -1.2,1.2 v 9.6 c 0,0.66274 -0.537258,1.2 -1.2,1.2 h -9.6 c -0.662742,0 -1.2,-0.53726 -1.2,-1.2 v -9.6 C 72,180.53726 71.462742,180 70.8,180 H 61.2 C 60.537258,180 60,179.46274 60,178.8 V 168 h 46.8 c 0.66274,0 1.2,0.53726 1.2,1.2 v 9.6 c 0,0.66274 0.53726,1.2 1.2,1.2 H 120 v 10.8 c 0,0.66274 0.53726,1.2 1.2,1.2 h 21.6 c 0.66274,0 1.2,-0.53726 1.2,-1.2 V 180 h 12 v 34.8 c 0,0.66274 0.53726,1.2 1.2,1.2 h 9.6 c 0.66274,0 1.2,-0.53726 1.2,-1.2 V 180 h 22.8 c 0.66274,0 1.2,-0.53726 1.2,-1.2 v -9.6 c 0,-0.66274 -0.53726,-1.2 -1.2,-1.2 h -9.6 c -0.66274,0 -1.2,-0.53726 -1.2,-1.2 v -21.6 c 0,-0.66274 0.53726,-1.2 1.2,-1.2 h 9.6 c 0.66274,0 1.2,0.53726 1.2,1.2 v 9.6 c 0,0.66274 0.53726,1.2 1.2,1.2 h 9.6 c 0.66274,0 1.2,-0.53726 1.2,-1.2 v -9.6 c 0,-0.66274 0.53726,-1.2 1.2,-1.2 h 9.6 c 0.66274,0 1.2,0.53726 1.2,1.2 v 9.6 c 0,0.66274 0.53726,1.2 1.2,1.2 H 228 v 10.8 c 0,0.66274 0.53726,1.2 1.2,1.2 h 9.6 c 0.66274,0 1.2,0.53726 1.2,1.2 v 9.6 c 0,0.66274 -0.53726,1.2 -1.2,1.2 h -9.6 c -0.66274,0 -1.2,0.53726 -1.2,1.2 V 192 h -22.8 c -0.66274,0 -1.2,0.53726 -1.2,1.2 V 216 h -12 v -22.8 c 0,-0.66274 -0.53726,-1.2 -1.2,-1.2 h -9.6 c -0.66274,0 -1.2,0.53726 -1.2,1.2 v 21.6 c 0,0.66274 0.53726,1.2 1.2,1.2 H 192 v 10.8 c 0,0.66274 -0.53726,1.2 -1.2,1.2 h -9.6 c -0.66274,0 -1.2,0.53726 -1.2,1.2 v 9.6 c 0,0.66274 0.53726,1.2 1.2,1.2 h 9.6 c 0.66274,0 1.2,0.53726 1.2,1.2 v 9.6 c 0,0.66274 0.53726,1.2 1.2,1.2 h 9.6 c 0.66274,0 1.2,-0.53726 1.2,-1.2 v -9.6 c 0,-0.66274 0.53726,-1.2 1.2,-1.2 h 9.6 c 0.66274,0 1.2,0.53726 1.2,1.2 v 9.6 c 0,0.66274 0.53726,1.2 1.2,1.2 H 240 v 22.8 c 0,0.66274 -0.53726,1.2 -1.2,1.2 h -9.6 c -0.66274,0 -1.2,0.53726 -1.2,1.2 V 288 h -22.8 c -0.66274,0 -1.2,0.53726 -1.2,1.2 v 9.6 c 0,0.66274 -0.53726,1.2 -1.2,1.2 z m -72,0 H 49.2 c -0.662742,0 -1.2,-0.53726 -1.2,-1.2 v -81.6 c 0,-0.66274 0.537258,-1.2 1.2,-1.2 h 81.6 c 0.66274,0 1.2,0.53726 1.2,1.2 v 81.6 c 0,0.66274 -0.53726,1.2 -1.2,1.2 z m 144,-12 H 264 v -22.8 c 0,-0.66274 -0.53726,-1.2 -1.2,-1.2 h -9.6 c -0.66274,0 -1.2,-0.53726 -1.2,-1.2 v -9.6 c 0,-0.66274 -0.53726,-1.2 -1.2,-1.2 H 240 v -10.8 c 0,-0.66274 -0.53726,-1.2 -1.2,-1.2 h -9.6 c -0.66274,0 -1.2,-0.53726 -1.2,-1.2 v -9.6 c 0,-0.66274 0.53726,-1.2 1.2,-1.2 h 9.6 c 0.66274,0 1.2,-0.53726 1.2,-1.2 V 216 h 24 v 10.8 c 0,0.66274 0.53726,1.2 1.2,1.2 h 9.6 c 0.66274,0 1.2,-0.53726 1.2,-1.2 v -9.6 c 0,-0.66274 -0.53726,-1.2 -1.2,-1.2 H 264 v -12 h 10.8 c 0.66274,0 1.2,-0.53726 1.2,-1.2 V 192 h 10.8 c 0.66274,0 1.2,0.53726 1.2,1.2 v 9.6 c 0,0.66274 0.53726,1.2 1.2,1.2 h 9.6 c 0.66274,0 1.2,0.53726 1.2,1.2 v 9.6 c 0,0.66274 -0.53726,1.2 -1.2,1.2 h -9.6 c -0.66274,0 -1.2,0.53726 -1.2,1.2 v 33.6 c 0,0.66274 -0.53726,1.2 -1.2,1.2 H 276 v -10.8 c 0,-0.66274 -0.53726,-1.2 -1.2,-1.2 h -9.6 c -0.66274,0 -1.2,0.53726 -1.2,1.2 v 9.6 c 0,0.66274 0.53726,1.2 1.2,1.2 H 276 v 36 z M 120,286.8 v -57.6 c 0,-0.66274 -0.53726,-1.2 -1.2,-1.2 H 61.2 c -0.662742,0 -1.2,0.53726 -1.2,1.2 v 57.6 c 0,0.66274 0.537258,1.2 1.2,1.2 h 57.6 c 0.66274,0 1.2,-0.53726 1.2,-1.2 z m 96,-12 v -9.6 c 0,-0.66274 -0.53726,-1.2 -1.2,-1.2 h -9.6 c -0.66274,0 -1.2,0.53726 -1.2,1.2 v 9.6 c 0,0.66274 0.53726,1.2 1.2,1.2 h 9.6 c 0.66274,0 1.2,-0.53726 1.2,-1.2 z m -24,0 v -9.6 c 0,-0.66274 -0.53726,-1.2 -1.2,-1.2 h -9.6 c -0.66274,0 -1.2,0.53726 -1.2,1.2 v 9.6 c 0,0.66274 0.53726,1.2 1.2,1.2 h 9.6 c 0.66274,0 1.2,-0.53726 1.2,-1.2 z M 106.8,276 H 73.2 c -0.662742,0 -1.2,-0.53726 -1.2,-1.2 v -33.6 c 0,-0.66274 0.537258,-1.2 1.2,-1.2 h 33.6 c 0.66274,0 1.2,0.53726 1.2,1.2 v 33.6 c 0,0.66274 -0.53726,1.2 -1.2,1.2 z m 108,-48 h -9.6 c -0.66274,0 -1.2,-0.53726 -1.2,-1.2 V 216 h 10.8 c 0.66274,0 1.2,0.53726 1.2,1.2 v 9.6 c 0,0.66274 -0.53726,1.2 -1.2,1.2 z m 24,-12 h -9.6 c -0.66274,0 -1.2,-0.53726 -1.2,-1.2 V 192 h 10.8 c 0.66274,0 1.2,0.53726 1.2,1.2 V 216 Z m 24,-12 h -9.6 c -0.66274,0 -1.2,-0.53726 -1.2,-1.2 v -57.6 c 0,-0.66274 0.53726,-1.2 1.2,-1.2 h 9.6 c 0.66274,0 1.2,0.53726 1.2,1.2 v 9.6 c 0,0.66274 0.53726,1.2 1.2,1.2 H 276 v 10.8 c 0,0.66274 0.53726,1.2 1.2,1.2 H 288 v 10.8 c 0,0.66274 -0.53726,1.2 -1.2,1.2 h -9.6 c -0.66274,0 -1.2,0.53726 -1.2,1.2 V 192 h -10.8 c -0.66274,0 -1.2,0.53726 -1.2,1.2 V 204 Z M 216,178.8 v -9.6 c 0,-0.66274 -0.53726,-1.2 -1.2,-1.2 h -9.6 c -0.66274,0 -1.2,0.53726 -1.2,1.2 v 9.6 c 0,0.66274 0.53726,1.2 1.2,1.2 h 9.6 c 0.66274,0 1.2,-0.53726 1.2,-1.2 z M 166.8,180 H 156 v -10.8 c 0,-0.66274 0.53726,-1.2 1.2,-1.2 h 9.6 c 0.66274,0 1.2,0.53726 1.2,1.2 V 180 Z m -24,0 H 120 v -10.8 c 0,-0.66274 0.53726,-1.2 1.2,-1.2 h 21.6 c 0.66274,0 1.2,0.53726 1.2,1.2 V 180 Z m 156,-12 H 288 v -12 h 10.8 c 0.66274,0 1.2,0.53726 1.2,1.2 v 9.6 c 0,0.66274 -0.53726,1.2 -1.2,1.2 z m -240,0 h -9.6 c -0.662742,0 -1.2,-0.53726 -1.2,-1.2 v -21.6 c 0,-0.66274 0.537258,-1.2 1.2,-1.2 h 57.6 c 0.66274,0 1.2,0.53726 1.2,1.2 v 9.6 c 0,0.66274 -0.53726,1.2 -1.2,1.2 H 61.2 c -0.662742,0 -1.2,0.53726 -1.2,1.2 V 168 Z m 228,-12 H 276 v -10.8 c 0,-0.66274 0.53726,-1.2 1.2,-1.2 h 9.6 c 0.66274,0 1.2,0.53726 1.2,1.2 V 156 Z m -48,0 H 228 v -10.8 c 0,-0.66274 0.53726,-1.2 1.2,-1.2 h 9.6 c 0.66274,0 1.2,0.53726 1.2,1.2 v 9.6 c 0,0.66274 -0.53726,1.2 -1.2,1.2 z m -84,0 h -33.6 c -0.66274,0 -1.2,-0.53726 -1.2,-1.2 v -9.6 c 0,-0.66274 0.53726,-1.2 1.2,-1.2 H 156 v 10.8 c 0,0.66274 -0.53726,1.2 -1.2,1.2 z m 12,-12 H 156 v -12 h 12 v 10.8 c 0,0.66274 -0.53726,1.2 -1.2,1.2 z m 132,-12 h -81.6 c -0.66274,0 -1.2,-0.53726 -1.2,-1.2 V 49.2 c 0,-0.662742 0.53726,-1.2 1.2,-1.2 h 81.6 c 0.66274,0 1.2,0.537258 1.2,1.2 v 81.6 c 0,0.66274 -0.53726,1.2 -1.2,1.2 z m -96,0 h -9.6 c -0.66274,0 -1.2,-0.53726 -1.2,-1.2 V 120 h 10.8 c 0.66274,0 1.2,0.53726 1.2,1.2 v 9.6 c 0,0.66274 -0.53726,1.2 -1.2,1.2 z m -24,0 H 168 v -10.8 c 0,-0.66274 0.53726,-1.2 1.2,-1.2 H 180 v 10.8 c 0,0.66274 -0.53726,1.2 -1.2,1.2 z m -24,0 h -9.6 c -0.66274,0 -1.2,-0.53726 -1.2,-1.2 v -21.6 c 0,-0.66274 0.53726,-1.2 1.2,-1.2 H 156 v 24 z m -24,0 H 49.2 C 48.537258,132 48,131.46274 48,130.8 V 49.2 C 48,48.537258 48.537258,48 49.2,48 h 81.6 c 0.66274,0 1.2,0.537258 1.2,1.2 v 81.6 c 0,0.66274 -0.53726,1.2 -1.2,1.2 z M 288,118.8 V 61.2 c 0,-0.662742 -0.53726,-1.2 -1.2,-1.2 h -57.6 c -0.66274,0 -1.2,0.537258 -1.2,1.2 v 57.6 c 0,0.66274 0.53726,1.2 1.2,1.2 h 57.6 c 0.66274,0 1.2,-0.53726 1.2,-1.2 z M 190.8,120 H 180 v -10.8 c 0,-0.66274 0.53726,-1.2 1.2,-1.2 H 192 v 12 z M 120,118.8 V 61.2 C 120,60.537258 119.46274,60 118.8,60 H 61.2 C 60.537258,60 60,60.537258 60,61.2 v 57.6 c 0,0.66274 0.537258,1.2 1.2,1.2 h 57.6 c 0.66274,0 1.2,-0.53726 1.2,-1.2 z M 274.8,108 h -33.6 c -0.66274,0 -1.2,-0.53726 -1.2,-1.2 V 73.2 c 0,-0.662742 0.53726,-1.2 1.2,-1.2 h 33.6 c 0.66274,0 1.2,0.537258 1.2,1.2 v 33.6 c 0,0.66274 -0.53726,1.2 -1.2,1.2 z m -72,0 H 192 V 85.2 C 192,84.537258 191.46274,84 190.8,84 H 168 V 73.2 c 0,-0.662742 -0.53726,-1.2 -1.2,-1.2 h -21.6 c -0.66274,0 -1.2,-0.537258 -1.2,-1.2 v -9.6 c 0,-0.662742 0.53726,-1.2 1.2,-1.2 h 21.6 c 0.66274,0 1.2,-0.537258 1.2,-1.2 v -9.6 c 0,-0.662742 0.53726,-1.2 1.2,-1.2 h 33.6 c 0.66274,0 1.2,0.537258 1.2,1.2 v 57.6 c 0,0.66274 -0.53726,1.2 -1.2,1.2 z m -36,0 H 156 V 97.2 c 0,-0.662742 -0.53726,-1.2 -1.2,-1.2 h -9.6 c -0.66274,0 -1.2,-0.537258 -1.2,-1.2 v -9.6 c 0,-0.662742 0.53726,-1.2 1.2,-1.2 H 168 v 22.8 c 0,0.66274 -0.53726,1.2 -1.2,1.2 z m -60,0 H 73.2 C 72.537258,108 72,107.46274 72,106.8 V 73.2 C 72,72.537258 72.537258,72 73.2,72 h 33.6 c 0.66274,0 1.2,0.537258 1.2,1.2 v 33.6 c 0,0.66274 -0.53726,1.2 -1.2,1.2 z M 192,70.8 v -9.6 c 0,-0.662742 -0.53726,-1.2 -1.2,-1.2 h -9.6 c -0.66274,0 -1.2,0.537258 -1.2,1.2 v 9.6 c 0,0.662742 0.53726,1.2 1.2,1.2 h 9.6 c 0.66274,0 1.2,-0.537258 1.2,-1.2 z"
         id="path114355" />
    </g>
  </g>
  <g
     inkscape:groupmode="layer"
     id="layer20"
     inkscape:label="Return Button"
     style="display:inline">
    <g
       id="g1668"
       style="display:inline"
       transform="translate(-0.3586731,-4.2468266)">
      <circle
         style="display:inline;opacity:1;fill:#e5e5e5;fill-opacity:1;stroke-width:0.499999"
         id="circle35100"
         cx="105.71735"
         cy="274.26596"
         r="15.861898" />
      <circle
         style="display:inline;opacity:1;fill:#fcfcfc;fill-opacity:1;stroke-width:0.499999"
         id="path34792"
         cx="105"
         cy="273.54868"
         r="15.861898" />
      <path
         id="primary-9"
         d="m 104.61984,266.37215 -6.632603,6.16973 a 0.88050509,1.3203226 0 0 0 0,2.19642 l 6.632603,6.16973 a 0.82290193,1.2339464 0 0 0 1.20143,-1.55477 l -0.69123,-3.28229 h 6.45155 a 0.82290193,1.2339464 0 0 0 0.8229,-1.23395 v -2.46789 a 0.82290193,1.2339464 0 0 0 -0.8229,-1.23395 h -6.45155 l 0.69123,-3.2823 a 0.82290193,1.2339464 0 0 0 -1.20143,-1.48073 z"
         style="display:inline;fill:none;stroke:#000000;stroke-width:2.01536px;stroke-linecap:round;stroke-linejoin:round" />
    </g>
  </g>
  <g
     inkscape:groupmode="layer"
     id="layer18"
     inkscape:label="Comment Box"
     style="display:inline">
    <rect
       style="fill:#f2f2f2;stroke:none;stroke-width:0.5;fill-opacity:1"
       id="rect115866"
       width="181.42279"
       height="128.26555"
       x="14.288605"
       y="111.67574"
       ry="4.7489066" />
  </g>
  <g
     inkscape:groupmode="layer"
     id="layer19"
     inkscape:label="Default comment"
     style="display:none">
    <text
       xml:space="preserve"
       style="font-size:8.46667px;line-height:1.25;font-family:sans-serif;letter-spacing:0px;word-spacing:0px;display:inline;fill:#f9f9f9;stroke-width:0.264583"
       x="19.783014"
       y="126.32361"
       id="text136330"><tspan
         sodipodi:role="line"
         id="tspan136328"
         style="font-size:8.46667px;fill:#f9f9f9;stroke-width:0.264583"
         x="19.783014"
         y="126.32361">Comment</tspan></text>
  </g>
  <g
     inkscape:groupmode="layer"
     id="layer21"
     inkscape:label="Example Comment"
     style="display:inline">
    <text
       xml:space="preserve"
       style="font-style:normal;font-variant:normal;font-weight:normal;font-stretch:normal;font-size:8.46667px;line-height:1.25;font-family:sans-serif;-inkscape-font-specification:'sans-serif, Normal';font-variant-ligatures:normal;font-variant-caps:normal;font-variant-numeric:normal;font-variant-east-asian:normal;letter-spacing:0px;word-spacing:0px;stroke-width:0.264583"
       x="20.214815"
       y="126.32361"
       id="text141594"><tspan
         sodipodi:role="line"
         id="tspan1462"
         x="20.214815"
         y="126.32361">Lorem ipsum dolor sit amet, consectetuer </tspan><tspan
         sodipodi:role="line"
         id="tspan1464"
         x="20.214815"
         y="136.90695">adipiscing elit. Morbi urna. Phasellus </tspan><tspan
         sodipodi:role="line"
         id="tspan1466"
         x="20.214815"
         y="147.49028">hendrerit. Nullam venenatis gravida orci.</tspan><tspan
         sodipodi:role="line"
         id="tspan1468"
         x="20.214815"
         y="158.07362">Suspendisse fermentum. Sed dolor. Etiam</tspan><tspan
         sodipodi:role="line"
         id="tspan1470"
         x="20.214815"
         y="168.65695">cursus purus interdum libero. Nulla blandit </tspan><tspan
         sodipodi:role="line"
         id="tspan1472"
         x="20.214815"
         y="179.2403">justo a metus. Aenean ultrices turpis. In </tspan><tspan
         sodipodi:role="line"
         id="tspan1474"
         x="20.214815"
         y="189.82364">hac habitasse platea dictumst. Aenean </tspan><tspan
         sodipodi:role="line"
         id="tspan1476"
         x="20.214815"
         y="200.40697">ligula. Cras gravida. In commodo, dolor </tspan><tspan
         sodipodi:role="line"
         id="tspan1478"
         x="20.214815"
         y="210.99031">quis fermentum ullamcorper, urna massa </tspan><tspan
         sodipodi:role="line"
         id="tspan1480"
         x="20.214815"
         y="221.57364">volutpat massa, vitae mattis purus arcu </tspan><tspan
         sodipodi:role="line"
         id="tspan1482"
         x="20.214815"
         y="232.15698">nec nulla. Pellentesque ac turpis.</tspan></text>
    <text
       xml:space="preserve"
       style="font-size:2.11667px;line-height:1.25;font-family:sans-serif;letter-spacing:0px;word-spacing:0px;stroke-width:0.264583"
       x="25.613956"
       y="124.98563"
       id="text146653"><tspan
         sodipodi:role="line"
         id="tspan146651"
         style="stroke-width:0.264583"
         x="25.613956"
         y="124.98563" /></text>
  </g>
</svg>
